<?xml version="1.0" encoding="UTF-8"?> <svg xmlns="http://www.w3.org/2000/svg" width="184" height="147" viewBox="0 0 184 147" fill="none"><g clip-path="url(#clip0)"><rect width="183" height="146" transform="translate(0.5 0.388672)" fill="white"></rect><path d="M64.6826 35.4666C69.6574 35.4666 73.6904 31.4343 73.6904 26.4601C73.6904 21.486 69.6574 17.4536 64.6826 17.4536C59.7077 17.4536 55.6748 21.486 55.6748 26.4601C55.6748 31.4343 59.7077 35.4666 64.6826 35.4666Z" fill="white"></path><path d="M64.6826 35.9405C62.8072 35.9405 60.974 35.3845 59.4147 34.3428C57.8554 33.301 56.6401 31.8204 55.9225 30.088C55.2048 28.3557 55.017 26.4495 55.3829 24.6105C55.7487 22.7714 56.6518 21.0821 57.9779 19.7563C59.3039 18.4304 60.9934 17.5275 62.8327 17.1617C64.672 16.7959 66.5785 16.9836 68.3111 17.7012C70.0437 18.4187 71.5246 19.6339 72.5664 21.1929C73.6083 22.752 74.1644 24.5849 74.1644 26.46C74.1644 27.705 73.9192 28.9378 73.4426 30.088C72.9661 31.2383 72.2677 32.2834 71.3872 33.1638C70.5068 34.0441 69.4615 34.7424 68.3111 35.2189C67.1607 35.6953 65.9277 35.9405 64.6826 35.9405ZM64.6826 17.9275C62.9947 17.9275 61.3449 18.428 59.9415 19.3655C58.5381 20.3031 57.4444 21.6357 56.7985 23.1948C56.1526 24.7539 55.9836 26.4695 56.3128 28.1246C56.6421 29.7797 57.4549 31.3001 58.6483 32.4934C59.8418 33.6867 61.3623 34.4993 63.0177 34.8285C64.6731 35.1578 66.3889 34.9888 67.9482 34.343C69.5076 33.6972 70.8403 32.6036 71.778 31.2004C72.7157 29.7972 73.2162 28.1476 73.2162 26.46C73.2162 24.1971 72.3171 22.0268 70.7168 20.4266C69.1164 18.8265 66.9458 17.9275 64.6826 17.9275Z" fill="#333333"></path><path d="M69.5609 30.1955L68.3805 23.2321C68.3536 23.0743 68.2717 22.9311 68.1494 22.8278C68.027 22.7246 67.8721 22.668 67.712 22.668H66.7638V22.1418C66.7382 21.6052 66.507 21.0991 66.1182 20.7284C65.7293 20.3577 65.2127 20.1509 64.6754 20.1509C64.1381 20.1509 63.6215 20.3577 63.2327 20.7284C62.8438 21.0991 62.6126 21.6052 62.587 22.1418V22.6727H61.4065C61.2448 22.6721 61.0882 22.7297 60.9655 22.835C60.8427 22.9403 60.762 23.0863 60.7381 23.2463L59.6382 30.2192C59.6124 30.4012 59.626 30.5866 59.678 30.7629C59.73 30.9391 59.8192 31.1022 59.9397 31.241C60.0601 31.3799 60.209 31.4913 60.3761 31.5677C60.5433 31.6441 60.7249 31.6837 60.9087 31.684H68.2999C68.4859 31.6844 68.6697 31.6443 68.8386 31.5664C69.0075 31.4886 69.1574 31.3749 69.2779 31.2332C69.3984 31.0915 69.4866 30.9253 69.5363 30.7461C69.5859 30.5669 69.596 30.379 69.5657 30.1955H69.5609ZM63.5305 22.1371C63.5492 21.8474 63.6774 21.5757 63.8892 21.3772C64.101 21.1787 64.3804 21.0682 64.6707 21.0682C64.961 21.0682 65.2404 21.1787 65.4521 21.3772C65.6639 21.5757 65.7922 21.8474 65.8109 22.1371V22.668H63.5305V22.1371ZM68.5511 30.6127C68.5198 30.65 68.4806 30.68 68.4363 30.7005C68.3921 30.721 68.3439 30.7314 68.2951 30.7312H60.904C60.856 30.7307 60.8088 30.7199 60.7654 30.6995C60.722 30.679 60.6836 30.6494 60.6527 30.6127C60.6212 30.5786 60.5975 30.538 60.5836 30.4938C60.5697 30.4495 60.5657 30.4027 60.5721 30.3567L61.6341 23.616H65.204V25.3605C65.204 25.4862 65.254 25.6067 65.3429 25.6956C65.4318 25.7845 65.5524 25.8345 65.6781 25.8345C65.8039 25.8345 65.9245 25.7845 66.0134 25.6956C66.1023 25.6067 66.1522 25.4862 66.1522 25.3605V23.6208H67.4844L68.627 30.3567C68.6334 30.403 68.63 30.4502 68.6169 30.4952C68.6039 30.5401 68.5814 30.5817 68.5511 30.6174V30.6127Z" fill="#9E9E9E"></path><path d="M38.6079 60.5662C43.5827 60.5662 47.6156 56.5339 47.6156 51.5597C47.6156 46.5856 43.5827 42.5532 38.6079 42.5532C33.633 42.5532 29.6001 46.5856 29.6001 51.5597C29.6001 56.5339 33.633 60.5662 38.6079 60.5662Z" fill="white"></path><path d="M38.6078 61.0353C36.7325 61.0353 34.8993 60.4792 33.34 59.4375C31.7807 58.3958 30.5654 56.9151 29.8477 55.1828C29.1301 53.4504 28.9423 51.5442 29.3082 49.7052C29.674 47.8661 30.5771 46.1769 31.9032 44.851C33.2292 43.5251 34.9187 42.6222 36.758 42.2564C38.5973 41.8906 40.5038 42.0783 42.2364 42.7959C43.969 43.5134 45.4499 44.7286 46.4917 46.2876C47.5336 47.8467 48.0897 49.6797 48.0897 51.5547C48.0897 52.7997 47.8445 54.0326 47.3679 55.1828C46.8914 56.333 46.193 57.3781 45.3125 58.2585C44.4321 59.1388 43.3868 59.8372 42.2364 60.3136C41.086 60.79 39.853 61.0353 38.6078 61.0353ZM38.6078 43.0223C36.92 43.0223 35.2701 43.5227 33.8668 44.4603C32.4634 45.3978 31.3696 46.7304 30.7238 48.2895C30.0779 49.8486 29.9089 51.5642 30.2381 53.2193C30.5674 54.8745 31.3802 56.3948 32.5736 57.5881C33.7671 58.7814 35.2876 59.594 36.943 59.9233C38.5984 60.2525 40.3142 60.0835 41.8735 59.4377C43.4329 58.7919 44.7656 57.6983 45.7033 56.2951C46.641 54.892 47.1415 53.2423 47.1415 51.5547C47.1403 49.2926 46.2406 47.1236 44.6404 45.5244C43.0402 43.9253 40.8703 43.027 38.6078 43.027V43.0223Z" fill="#333333"></path><path d="M43.472 56.7451H33.7436C33.462 56.7451 33.1918 56.6332 32.9927 56.4341C32.7935 56.235 32.6816 55.9649 32.6816 55.6833V47.4305C32.6829 47.1492 32.7952 46.8799 32.9941 46.681C33.1929 46.4822 33.4623 46.3699 33.7436 46.3687H43.472C43.7533 46.3699 44.0227 46.4822 44.2216 46.681C44.4204 46.8799 44.5327 47.1492 44.534 47.4305V55.6833C44.534 55.8227 44.5065 55.9608 44.4531 56.0896C44.3998 56.2184 44.3215 56.3355 44.2229 56.4341C44.1243 56.5327 44.0072 56.6109 43.8784 56.6643C43.7496 56.7176 43.6115 56.7451 43.472 56.7451ZM33.7436 47.3167C33.7134 47.3167 33.6845 47.3287 33.6632 47.35C33.6418 47.3714 33.6298 47.4003 33.6298 47.4305V55.6833C33.6298 55.7134 33.6418 55.7424 33.6632 55.7637C33.6845 55.7851 33.7134 55.797 33.7436 55.797H43.472C43.5022 55.797 43.5311 55.7851 43.5525 55.7637C43.5738 55.7424 43.5858 55.7134 43.5858 55.6833V47.4305C43.5858 47.4003 43.5738 47.3714 43.5525 47.35C43.5311 47.3287 43.5022 47.3167 43.472 47.3167H33.7436Z" fill="#9E9E9E"></path><path d="M36.9487 54.0196C36.823 54.0196 36.7024 53.9696 36.6135 53.8807C36.5246 53.7918 36.4746 53.6713 36.4746 53.5456V49.5685C36.4749 49.4875 36.496 49.4079 36.5359 49.3374C36.5757 49.2668 36.633 49.2077 36.7022 49.1656C36.7742 49.124 36.856 49.1021 36.9392 49.1021C37.0224 49.1021 37.1042 49.124 37.1763 49.1656L41.1539 51.1565C41.2328 51.1958 41.2992 51.2563 41.3456 51.3313C41.392 51.4062 41.4165 51.4926 41.4165 51.5807C41.4165 51.6689 41.392 51.7552 41.3456 51.8302C41.2992 51.9051 41.2328 51.9657 41.1539 52.005L37.1763 53.9959C37.1035 54.0222 37.0254 54.0304 36.9487 54.0196ZM37.4228 50.3364V52.7776L39.8691 51.5594L37.4228 50.3364Z" fill="#9E9E9E"></path><path d="M36.8916 98.0047C41.8664 98.0047 45.8993 93.9723 45.8993 88.9982C45.8993 84.024 41.8664 79.9917 36.8916 79.9917C31.9167 79.9917 27.8838 84.024 27.8838 88.9982C27.8838 93.9723 31.9167 98.0047 36.8916 98.0047Z" fill="white"></path><path d="M36.8915 98.4786C35.0162 98.4786 33.183 97.9226 31.6237 96.8809C30.0644 95.8391 28.8491 94.3585 28.1314 92.6261C27.4138 90.8938 27.226 88.9876 27.5919 87.1485C27.9577 85.3095 28.8608 83.6202 30.1868 82.2944C31.5129 80.9685 33.2024 80.0656 35.0417 79.6997C36.881 79.3339 38.7875 79.5217 40.5201 80.2392C42.2527 80.9568 43.7335 82.1719 44.7754 83.731C45.8173 85.2901 46.3734 87.123 46.3734 88.9981C46.3734 90.2431 46.1281 91.4759 45.6516 92.6261C45.1751 93.7764 44.4767 94.8215 43.5962 95.7018C42.7158 96.5822 41.6705 97.2805 40.5201 97.757C39.3697 98.2334 38.1367 98.4786 36.8915 98.4786ZM36.8915 80.4656C35.2037 80.4656 33.5538 80.9661 32.1505 81.9036C30.7471 82.8412 29.6533 84.1738 29.0074 85.7329C28.3616 87.292 28.1926 89.0076 28.5218 90.6627C28.8511 92.3178 29.6639 93.8382 30.8573 95.0315C32.0508 96.2248 33.5713 97.0374 35.2267 97.3666C36.8821 97.6958 38.5979 97.5269 40.1572 96.8811C41.7166 96.2353 43.0493 95.1416 43.987 93.7385C44.9247 92.3353 45.4252 90.6857 45.4252 88.9981C45.4252 86.7352 44.5261 84.5649 42.9258 82.9647C41.3254 81.3646 39.1548 80.4656 36.8915 80.4656Z" fill="#333333"></path><path d="M42.8223 84.4995H42.2155L42.4715 84.2483C42.5614 84.1603 42.6126 84.0402 42.614 83.9144C42.6153 83.7886 42.5666 83.6674 42.4786 83.5775C42.3906 83.4876 42.2705 83.4364 42.1447 83.435C42.0188 83.4337 41.8977 83.4824 41.8078 83.5704L41.5518 83.8264V83.2196C41.5518 83.0939 41.5018 82.9733 41.4129 82.8844C41.324 82.7955 41.2034 82.7456 41.0777 82.7456C40.9519 82.7456 40.8313 82.7955 40.7424 82.8844C40.6535 82.9733 40.6036 83.0939 40.6036 83.2196V84.7413L40.2006 85.13C39.1103 84.1913 37.6994 83.7099 36.2626 83.7865C34.8259 83.863 33.4742 84.4915 32.4898 85.5408C31.5054 86.59 30.9644 87.9789 30.9798 89.4174C30.9952 90.856 31.5657 92.233 32.5723 93.261C33.5788 94.289 34.9436 94.8885 36.3817 94.9343C37.8198 94.9802 39.22 94.4688 40.2901 93.5071C41.3601 92.5453 42.0172 91.2074 42.1242 89.7728C42.2312 88.3382 41.7798 86.9176 40.8643 85.8078L41.2436 85.4381H42.8223C42.9481 85.4381 43.0686 85.3881 43.1576 85.2992C43.2465 85.2103 43.2964 85.0898 43.2964 84.964C43.2964 84.8383 43.2465 84.7178 43.1576 84.6289C43.0686 84.54 42.9481 84.49 42.8223 84.49V84.4995ZM41.2151 89.3535C41.2161 90.4094 40.8569 91.434 40.1969 92.2582C39.5369 93.0824 38.6155 93.6569 37.5848 93.8869C36.5542 94.1169 35.4759 93.9887 34.528 93.5233C33.5801 93.0579 32.8193 92.2832 32.3711 91.3272C31.923 90.3712 31.8143 89.2909 32.0629 88.2647C32.3116 87.2386 32.9029 86.3279 33.7391 85.683C34.5752 85.0382 35.6063 84.6977 36.6621 84.7178C37.7179 84.7379 38.7353 85.1174 39.5463 85.7936L38.1999 87.1066C37.6401 86.7046 36.9498 86.527 36.2653 86.6089C35.5809 86.6909 34.9521 87.0265 34.5031 87.5494C34.054 88.0723 33.8174 88.7446 33.8399 89.4334C33.8624 90.1223 34.1425 90.7777 34.6247 91.2702C35.1069 91.7626 35.7563 92.0565 36.4446 92.0936C37.1329 92.1307 37.8102 91.9084 38.3426 91.4706C38.875 91.0328 39.2238 90.4114 39.3203 89.7289C39.4168 89.0465 39.2538 88.3527 38.8636 87.7845L40.2053 86.4762C40.8595 87.2925 41.2157 88.3075 41.2151 89.3535ZM38.399 89.3535C38.4023 89.7602 38.2706 90.1565 38.0247 90.4804C37.7787 90.8043 37.4323 91.0375 37.0397 91.1437C36.647 91.2498 36.2303 91.2228 35.8546 91.067C35.4789 90.9111 35.1655 90.6351 34.9634 90.2822C34.7612 89.9293 34.6818 89.5194 34.7374 89.1166C34.7931 88.7137 34.9807 88.3407 35.2709 88.0557C35.5611 87.7708 35.9376 87.5901 36.3415 87.5419C36.7454 87.4937 37.1538 87.5807 37.503 87.7892L36.2466 89.0122C36.1583 89.101 36.1088 89.2212 36.1088 89.3464C36.1088 89.4717 36.1583 89.5918 36.2466 89.6806C36.2907 89.725 36.3432 89.7603 36.4009 89.7844C36.4587 89.8084 36.5207 89.8208 36.5832 89.8208C36.6458 89.8208 36.7078 89.8084 36.7656 89.7844C36.8233 89.7603 36.8758 89.725 36.9199 89.6806L38.1715 88.4576C38.3133 88.7344 38.3818 89.0428 38.3706 89.3535H38.399Z" fill="#9E9E9E"></path><path d="M64.6826 126.925C69.6574 126.925 73.6904 122.893 73.6904 117.919C73.6904 112.944 69.6574 108.912 64.6826 108.912C59.7077 108.912 55.6748 112.944 55.6748 117.919C55.6748 122.893 59.7077 126.925 64.6826 126.925Z" fill="white"></path><path d="M64.6826 127.399C62.8072 127.399 60.974 126.843 59.4147 125.801C57.8554 124.76 56.6401 123.279 55.9225 121.547C55.2048 119.814 55.017 117.908 55.3829 116.069C55.7487 114.23 56.6518 112.541 57.9779 111.215C59.3039 109.889 60.9934 108.986 62.8327 108.62C64.672 108.254 66.5785 108.442 68.3111 109.16C70.0437 109.877 71.5246 111.092 72.5664 112.651C73.6083 114.21 74.1644 116.043 74.1644 117.919C74.1644 120.433 73.1654 122.844 71.3872 124.622C69.609 126.4 67.1973 127.399 64.6826 127.399ZM64.6826 109.386C62.9947 109.386 61.3449 109.886 59.9415 110.824C58.5381 111.762 57.4444 113.094 56.7985 114.653C56.1526 116.212 55.9836 117.928 56.3128 119.583C56.6421 121.238 57.4549 122.759 58.6483 123.952C59.8418 125.145 61.3623 125.958 63.0177 126.287C64.6731 126.616 66.3889 126.447 67.9482 125.801C69.5076 125.156 70.8403 124.062 71.778 122.659C72.7157 121.256 73.2162 119.606 73.2162 117.919C73.2162 115.656 72.3171 113.485 70.7168 111.885C69.1164 110.285 66.9458 109.386 64.6826 109.386Z" fill="#333333"></path><path d="M68.0011 114.837C68.0011 114.523 67.8763 114.222 67.654 113.999C67.4317 113.777 67.1303 113.652 66.8159 113.652H62.5491C62.277 113.653 62.0134 113.747 61.8024 113.918C61.5914 114.09 61.4458 114.329 61.3903 114.595C61.3347 114.861 61.3724 115.139 61.497 115.381C61.6217 115.622 61.8258 115.814 62.075 115.923V122.422C62.075 123.113 62.3497 123.776 62.8387 124.265C63.3277 124.754 63.9909 125.029 64.6825 125.029C65.374 125.029 66.0373 124.754 66.5263 124.265C67.0153 123.776 67.29 123.113 67.29 122.422V115.923C67.5009 115.83 67.6804 115.678 67.8066 115.486C67.9329 115.293 68.0004 115.068 68.0011 114.837ZM64.6825 124.081C64.2424 124.081 63.8204 123.906 63.5092 123.595C63.198 123.284 63.0232 122.862 63.0232 122.422V116.022H63.2602C63.386 116.022 63.5065 115.973 63.5954 115.884C63.6844 115.795 63.7343 115.674 63.7343 115.548C63.7343 115.423 63.6844 115.302 63.5954 115.213C63.5065 115.124 63.386 115.074 63.2602 115.074H62.5491C62.4862 115.074 62.4259 115.049 62.3815 115.005C62.337 114.961 62.312 114.9 62.312 114.837C62.312 114.775 62.337 114.714 62.3815 114.67C62.4259 114.625 62.4862 114.6 62.5491 114.6H66.8159C66.8788 114.6 66.9391 114.625 66.9835 114.67C67.028 114.714 67.053 114.775 67.053 114.837C67.053 114.9 67.028 114.961 66.9835 115.005C66.9391 115.049 66.8788 115.074 66.8159 115.074H66.1048C65.979 115.074 65.8584 115.124 65.7695 115.213C65.6806 115.302 65.6307 115.423 65.6307 115.548C65.6307 115.674 65.6806 115.795 65.7695 115.884C65.8584 115.973 65.979 116.022 66.1048 116.022H66.3418V116.971H65.6307C65.5049 116.971 65.3844 117.02 65.2954 117.109C65.2065 117.198 65.1566 117.319 65.1566 117.445C65.1566 117.57 65.2065 117.691 65.2954 117.78C65.3844 117.869 65.5049 117.919 65.6307 117.919H66.3418V118.867H65.6307C65.5049 118.867 65.3844 118.917 65.2954 119.005C65.2065 119.094 65.1566 119.215 65.1566 119.341C65.1566 119.466 65.2065 119.587 65.2954 119.676C65.3844 119.765 65.5049 119.815 65.6307 119.815H66.3418V120.763H65.6307C65.5049 120.763 65.3844 120.813 65.2954 120.902C65.2065 120.99 65.1566 121.111 65.1566 121.237C65.1566 121.362 65.2065 121.483 65.2954 121.572C65.3844 121.661 65.5049 121.711 65.6307 121.711H66.3418V122.422C66.3418 122.862 66.167 123.284 65.8558 123.595C65.5446 123.906 65.1226 124.081 64.6825 124.081Z" fill="#9E9E9E"></path><path d="M64.2085 113.415C64.4703 113.415 64.6826 113.203 64.6826 112.941C64.6826 112.68 64.4703 112.467 64.2085 112.467C63.9466 112.467 63.7344 112.68 63.7344 112.941C63.7344 113.203 63.9466 113.415 64.2085 113.415Z" fill="#9E9E9E"></path><path d="M65.3935 112.23C65.6554 112.23 65.8676 112.018 65.8676 111.756C65.8676 111.494 65.6554 111.282 65.3935 111.282C65.1317 111.282 64.9194 111.494 64.9194 111.756C64.9194 112.018 65.1317 112.23 65.3935 112.23Z" fill="#9E9E9E"></path><path d="M104.544 125.897C109.519 125.897 113.552 121.864 113.552 116.89C113.552 111.916 109.519 107.884 104.544 107.884C99.5695 107.884 95.5366 111.916 95.5366 116.89C95.5366 121.864 99.5695 125.897 104.544 125.897Z" fill="white"></path><path d="M104.544 126.371C102.669 126.371 100.836 125.815 99.2765 124.773C97.7172 123.731 96.5019 122.251 95.7843 120.518C95.0666 118.786 94.8788 116.88 95.2447 115.041C95.6106 113.202 96.5136 111.512 97.8397 110.186C99.1657 108.861 100.855 107.958 102.695 107.592C104.534 107.226 106.44 107.414 108.173 108.131C109.906 108.849 111.386 110.064 112.428 111.623C113.47 113.182 114.026 115.015 114.026 116.89C114.026 119.405 113.027 121.816 111.249 123.594C109.471 125.372 107.059 126.371 104.544 126.371ZM104.544 108.358C102.857 108.358 101.207 108.858 99.8033 109.796C98.4 110.733 97.3062 112.066 96.6603 113.625C96.0144 115.184 95.8454 116.9 96.1747 118.555C96.5039 120.21 97.3167 121.73 98.5101 122.924C99.7036 124.117 101.224 124.929 102.88 125.259C104.535 125.588 106.251 125.419 107.81 124.773C109.369 124.127 110.702 123.034 111.64 121.631C112.578 120.227 113.078 118.578 113.078 116.89C113.078 114.627 112.179 112.457 110.579 110.857C108.978 109.257 106.808 108.358 104.544 108.358Z" fill="#333333"></path><path d="M99.4479 120.303C99.3798 120.374 99.3418 120.468 99.3418 120.566C99.3418 120.664 99.3798 120.759 99.4479 120.829L100.259 121.64C100.293 121.675 100.334 121.702 100.379 121.721C100.424 121.74 100.473 121.75 100.522 121.75C100.571 121.75 100.619 121.74 100.664 121.721C100.709 121.702 100.75 121.675 100.785 121.64L101.174 121.251L99.8367 119.915L99.4479 120.303Z" fill="#9E9E9E"></path><path d="M106.716 115.824L106.976 115.563C107.045 115.492 107.083 115.398 107.083 115.3C107.083 115.202 107.045 115.107 106.976 115.037L106.166 114.226C106.131 114.191 106.09 114.164 106.045 114.145C106 114.126 105.952 114.116 105.903 114.116C105.854 114.116 105.805 114.126 105.76 114.145C105.715 114.164 105.674 114.191 105.64 114.226L105.379 114.487L103.795 112.942C103.762 112.908 103.723 112.879 103.682 112.856C103.499 112.737 103.288 112.671 103.07 112.667C102.923 112.665 102.778 112.693 102.642 112.748C102.506 112.803 102.382 112.885 102.278 112.989C101.987 113.362 101.833 113.824 101.842 114.297C101.771 115.573 101.215 116.774 100.287 117.653L99.5285 118.407C99.3696 118.566 99.2803 118.782 99.2803 119.007C99.2803 119.232 99.3696 119.447 99.5285 119.606L101.472 121.55C101.634 121.71 101.852 121.801 102.079 121.801C102.215 121.799 102.349 121.763 102.468 121.697L103.416 122.645C103.577 122.805 103.795 122.896 104.023 122.896C104.185 122.89 104.342 122.838 104.475 122.745C104.608 122.652 104.711 122.523 104.773 122.373C104.834 122.223 104.851 122.058 104.822 121.899C104.792 121.739 104.717 121.592 104.606 121.474L103.686 120.554C104.534 119.779 105.625 119.324 106.773 119.265C107.337 119.199 107.825 119.146 108.11 118.791C108.213 118.687 108.295 118.564 108.349 118.428C108.404 118.292 108.43 118.146 108.427 117.999C108.423 117.705 108.304 117.425 108.095 117.217L106.716 115.824ZM100.268 119.004L100.974 118.298L101.027 118.241L102.847 120.052L102.795 120.104L102.193 120.697H102.164L102.089 120.768L100.268 119.004ZM107.422 118.156C107.187 118.259 106.934 118.314 106.678 118.317C105.555 118.386 104.475 118.776 103.568 119.44L101.671 117.521C102.346 116.6 102.738 115.503 102.8 114.364C102.804 114.106 102.858 113.851 102.961 113.615C102.976 113.599 102.995 113.586 103.015 113.578C103.036 113.569 103.057 113.565 103.079 113.565C103.102 113.565 103.123 113.569 103.144 113.578C103.164 113.586 103.183 113.599 103.198 113.615L107.441 117.852C107.465 117.871 107.483 117.895 107.495 117.922C107.508 117.949 107.513 117.979 107.511 118.009C107.509 118.039 107.5 118.068 107.485 118.093C107.469 118.119 107.448 118.14 107.422 118.156Z" fill="#9E9E9E"></path><path d="M105.156 113.387C105.28 113.387 105.4 113.337 105.488 113.25L106.721 112.017C106.77 111.975 106.81 111.922 106.839 111.864C106.867 111.805 106.883 111.741 106.886 111.675C106.888 111.61 106.877 111.545 106.854 111.484C106.83 111.423 106.794 111.368 106.747 111.322C106.701 111.276 106.646 111.24 106.585 111.216C106.524 111.192 106.459 111.181 106.394 111.183C106.329 111.186 106.265 111.202 106.206 111.23C106.147 111.259 106.095 111.299 106.052 111.349L104.819 112.577C104.753 112.643 104.707 112.728 104.688 112.82C104.67 112.912 104.679 113.008 104.715 113.095C104.752 113.182 104.813 113.256 104.891 113.308C104.97 113.36 105.062 113.388 105.156 113.387Z" fill="#9E9E9E"></path><path d="M109.802 114.425C109.758 114.381 109.705 114.346 109.648 114.322C109.59 114.298 109.528 114.285 109.465 114.285C109.403 114.285 109.341 114.298 109.283 114.322C109.225 114.346 109.173 114.381 109.129 114.425L107.896 115.658C107.808 115.747 107.758 115.867 107.758 115.992C107.758 116.117 107.808 116.237 107.896 116.326C107.94 116.371 107.992 116.407 108.05 116.431C108.108 116.455 108.17 116.468 108.233 116.468C108.295 116.468 108.358 116.455 108.415 116.431C108.473 116.407 108.525 116.371 108.569 116.326L109.802 115.098C109.846 115.054 109.882 115.002 109.906 114.944C109.93 114.886 109.942 114.825 109.942 114.762C109.942 114.699 109.93 114.637 109.906 114.58C109.882 114.522 109.846 114.469 109.802 114.425Z" fill="#9E9E9E"></path><path d="M107.446 114.241C107.508 114.241 107.57 114.229 107.628 114.205C107.686 114.182 107.738 114.147 107.782 114.103L109.015 112.871C109.104 112.781 109.154 112.66 109.154 112.534C109.154 112.408 109.104 112.287 109.015 112.198C108.926 112.108 108.805 112.058 108.678 112.058C108.552 112.058 108.431 112.108 108.342 112.198L107.114 113.416C107.047 113.482 107.002 113.566 106.983 113.658C106.964 113.75 106.973 113.845 107.009 113.932C107.044 114.019 107.105 114.093 107.183 114.145C107.26 114.198 107.352 114.226 107.446 114.226V114.241Z" fill="#9E9E9E"></path><path d="M130.098 98.0047C135.073 98.0047 139.106 93.9723 139.106 88.9982C139.106 84.024 135.073 79.9917 130.098 79.9917C125.123 79.9917 121.09 84.024 121.09 88.9982C121.09 93.9723 125.123 98.0047 130.098 98.0047Z" fill="white"></path><path d="M130.098 98.4786C128.223 98.4786 126.39 97.9226 124.83 96.8809C123.271 95.8391 122.056 94.3585 121.338 92.6261C120.62 90.8938 120.433 88.9876 120.798 87.1485C121.164 85.3095 122.067 83.6202 123.393 82.2944C124.719 80.9685 126.409 80.0656 128.248 79.6997C130.088 79.3339 131.994 79.5217 133.727 80.2392C135.459 80.9568 136.94 82.1719 137.982 83.731C139.024 85.2901 139.58 87.123 139.58 88.9981C139.58 91.5125 138.581 93.9239 136.803 95.7018C135.025 97.4798 132.613 98.4786 130.098 98.4786ZM130.098 80.4656C128.41 80.4656 126.76 80.9661 125.357 81.9036C123.954 82.8412 122.86 84.1738 122.214 85.7329C121.568 87.292 121.399 89.0076 121.728 90.6627C122.058 92.3178 122.87 93.8382 124.064 95.0315C125.257 96.2248 126.778 97.0374 128.433 97.3666C130.089 97.6958 131.804 97.5269 133.364 96.8811C134.923 96.2353 136.256 95.1416 137.194 93.7385C138.131 92.3353 138.632 90.6857 138.632 88.9981C138.632 86.7352 137.733 84.5649 136.132 82.9647C134.532 81.3646 132.361 80.4656 130.098 80.4656Z" fill="#333333"></path><path d="M134.204 86.2916H133.507V85.4716C133.507 83.822 131.98 82.4805 130.098 82.4805C128.216 82.4805 126.694 83.822 126.694 85.4716V86.2916H125.993C125.93 86.2913 125.868 86.3032 125.811 86.3268C125.753 86.3504 125.7 86.3852 125.656 86.4291C125.612 86.4734 125.577 86.5259 125.554 86.5837C125.53 86.6414 125.518 86.7033 125.519 86.7657V92.6294C125.519 93.144 125.723 93.6376 126.086 94.002C126.45 94.3663 126.943 94.5716 127.458 94.5729H132.739C133.254 94.5716 133.747 94.3663 134.11 94.002C134.474 93.6376 134.678 93.144 134.678 92.6294V86.7657C134.678 86.6399 134.628 86.5194 134.539 86.4305C134.45 86.3416 134.33 86.2916 134.204 86.2916ZM127.642 85.4716C127.642 84.3434 128.742 83.4285 130.098 83.4285C131.454 83.4285 132.559 84.3434 132.559 85.4716V86.2916H127.642V85.4716ZM133.73 92.6294C133.73 92.8926 133.626 93.145 133.44 93.3316C133.254 93.5181 133.002 93.6236 132.739 93.6248H127.458C127.194 93.6236 126.942 93.5181 126.757 93.3316C126.571 93.145 126.467 92.8926 126.467 92.6294V87.2397H133.73V92.6294Z" fill="#9E9E9E"></path><path d="M128.662 92.4018C128.65 92.4696 128.654 92.539 128.672 92.6053C128.69 92.6716 128.722 92.7332 128.766 92.7858C128.81 92.8387 128.865 92.8814 128.928 92.9108C128.99 92.9403 129.058 92.9559 129.126 92.9564H131.07C131.14 92.9575 131.209 92.9431 131.272 92.9144C131.336 92.8857 131.392 92.8434 131.438 92.7905C131.483 92.7375 131.516 92.6752 131.534 92.6081C131.553 92.5409 131.556 92.4705 131.544 92.4018L131.189 90.4441C131.394 90.2319 131.532 89.9642 131.586 89.6741C131.639 89.3841 131.607 89.0846 131.491 88.8131C131.376 88.5415 131.183 88.3099 130.937 88.1471C130.691 87.9843 130.403 87.8975 130.108 87.8975C129.813 87.8975 129.524 87.9843 129.278 88.1471C129.032 88.3099 128.84 88.5415 128.724 88.8131C128.609 89.0846 128.576 89.3841 128.63 89.6741C128.684 89.9642 128.822 90.2319 129.027 90.4441L128.662 92.4018ZM130.084 88.8514C130.23 88.8526 130.37 88.9116 130.473 89.0155C130.576 89.1194 130.634 89.2597 130.634 89.406C130.637 89.4994 130.615 89.592 130.572 89.675C130.529 89.7579 130.466 89.8285 130.388 89.88C130.311 89.9309 130.252 90.0027 130.215 90.0869C130.179 90.171 130.168 90.2638 130.184 90.354L130.487 92.0179H129.681L129.985 90.354C130 90.2638 129.989 90.171 129.953 90.0869C129.917 90.0027 129.857 89.9309 129.781 89.88C129.679 89.8159 129.602 89.7204 129.56 89.608C129.518 89.4957 129.514 89.3727 129.548 89.2578C129.582 89.1429 129.653 89.0424 129.75 88.9716C129.847 88.9008 129.964 88.8636 130.084 88.8656V88.8514Z" fill="#9E9E9E"></path><path d="M127.737 60.5662C132.712 60.5662 136.745 56.5339 136.745 51.5597C136.745 46.5856 132.712 42.5532 127.737 42.5532C122.762 42.5532 118.729 46.5856 118.729 51.5597C118.729 56.5339 122.762 60.5662 127.737 60.5662Z" fill="white"></path><path d="M127.737 61.0353C125.862 61.0353 124.029 60.4792 122.469 59.4375C120.91 58.3958 119.695 56.9151 118.977 55.1828C118.259 53.4504 118.072 51.5442 118.438 49.7052C118.803 47.8661 119.706 46.1769 121.033 44.851C122.359 43.5251 124.048 42.6222 125.887 42.2564C127.727 41.8906 129.633 42.0783 131.366 42.7959C133.098 43.5134 134.579 44.7286 135.621 46.2876C136.663 47.8467 137.219 49.6797 137.219 51.5547C137.219 52.7997 136.974 54.0326 136.497 55.1828C136.021 56.333 135.322 57.3781 134.442 58.2585C133.561 59.1388 132.516 59.8372 131.366 60.3136C130.215 60.79 128.982 61.0353 127.737 61.0353ZM127.737 43.0223C126.049 43.0223 124.4 43.5227 122.996 44.4603C121.593 45.3978 120.499 46.7304 119.853 48.2895C119.207 49.8486 119.038 51.5642 119.368 53.2193C119.697 54.8745 120.51 56.3948 121.703 57.5881C122.896 58.7814 124.417 59.594 126.072 59.9233C127.728 60.2525 129.444 60.0835 131.003 59.4377C132.562 58.7919 133.895 57.6983 134.833 56.2951C135.77 54.892 136.271 53.2423 136.271 51.5547C136.27 49.2926 135.37 47.1236 133.77 45.5244C132.17 43.9253 130 43.027 127.737 43.027V43.0223Z" fill="#333333"></path><path d="M134.389 50.5594L128.448 45.2455C128.277 45.1012 128.061 45.022 127.837 45.022C127.613 45.022 127.396 45.1012 127.225 45.2455L124.537 47.6157V46.5017H123.589V48.4405L121.266 50.4835C121.127 50.6073 121.029 50.7705 120.986 50.9513C120.942 51.1321 120.954 51.3219 121.021 51.4954C121.088 51.6689 121.206 51.8179 121.36 51.9226C121.514 52.0272 121.696 52.0824 121.882 52.081H122.475V56.2714C122.475 56.3919 122.499 56.5113 122.545 56.6226C122.591 56.7339 122.659 56.835 122.744 56.92C122.83 57.005 122.931 57.0723 123.043 57.118C123.154 57.1637 123.274 57.1869 123.394 57.1862H132.279C132.399 57.1862 132.518 57.1626 132.628 57.1165C132.739 57.0705 132.84 57.003 132.924 56.918C133.009 56.833 133.076 56.7321 133.121 56.6211C133.167 56.5102 133.19 56.3913 133.189 56.2714V52.081H133.787C133.99 52.0824 134.188 52.016 134.349 51.8924C134.511 51.7688 134.626 51.595 134.678 51.3984C134.723 51.2459 134.72 51.083 134.668 50.9325C134.616 50.7821 134.518 50.6516 134.389 50.5594ZM126.519 52.3038L129.155 52.2753V56.2382H126.552L126.519 52.3038ZM131.848 51.1329C131.722 51.1329 131.601 51.1829 131.512 51.2718C131.423 51.3607 131.373 51.4812 131.373 51.607C131.373 51.7327 131.423 51.8533 131.512 51.9422C131.601 52.031 131.722 52.081 131.848 52.081H132.265L132.293 56.2382H130.103V52.2659C130.103 52.022 130.006 51.7881 129.833 51.6156C129.661 51.4431 129.427 51.3462 129.183 51.3462H126.519C126.276 51.3475 126.043 51.4449 125.871 51.6173C125.7 51.7896 125.604 52.0228 125.604 52.2659V56.2524H123.442V52.081H123.859C123.985 52.081 124.105 52.031 124.194 51.9422C124.283 51.8533 124.333 51.7327 124.333 51.607C124.333 51.4812 124.283 51.3607 124.194 51.2718C124.105 51.1829 123.985 51.1329 123.859 51.1329H121.963L127.818 45.9518L133.597 51.1329H131.848Z" fill="#9E9E9E"></path><path d="M104.544 35.6751C109.519 35.6751 113.552 31.6428 113.552 26.6686C113.552 21.6945 109.519 17.6621 104.544 17.6621C99.5695 17.6621 95.5366 21.6945 95.5366 26.6686C95.5366 31.6428 99.5695 35.6751 104.544 35.6751Z" fill="white"></path><path d="M104.544 36.149C102.669 36.149 100.836 35.593 99.2765 34.5513C97.7172 33.5095 96.5019 32.0289 95.7843 30.2965C95.0666 28.5642 94.8788 26.658 95.2447 24.819C95.6106 22.9799 96.5136 21.2906 97.8397 19.9648C99.1657 18.6389 100.855 17.736 102.695 17.3702C104.534 17.0044 106.44 17.1921 108.173 17.9097C109.906 18.6272 111.386 19.8424 112.428 21.4014C113.47 22.9605 114.026 24.7934 114.026 26.6685C114.026 27.9135 113.781 29.1463 113.304 30.2965C112.828 31.4468 112.13 32.4919 111.249 33.3722C110.369 34.2526 109.323 34.9509 108.173 35.4274C107.023 35.9038 105.79 36.149 104.544 36.149ZM104.544 18.136C102.857 18.136 101.207 18.6365 99.8033 19.574C98.4 20.5116 97.3062 21.8442 96.6603 23.4033C96.0144 24.9624 95.8454 26.678 96.1747 28.3331C96.5039 29.9883 97.3167 31.5086 98.5101 32.7019C99.7036 33.8952 101.224 34.7078 102.88 35.037C104.535 35.3663 106.251 35.1973 107.81 34.5515C109.369 33.9057 110.702 32.8121 111.64 31.4089C112.578 30.0057 113.078 28.3561 113.078 26.6685C113.078 24.4056 112.179 22.2353 110.579 20.6351C108.978 19.035 106.808 18.136 104.544 18.136Z" fill="#333333"></path><path d="M104.848 31.7029C104.739 31.7034 104.634 31.6666 104.549 31.5986C104.494 31.554 104.45 31.4976 104.42 31.4337C104.389 31.3697 104.374 31.2997 104.374 31.2289V28.3516L102.952 29.2048V30.8307C102.952 30.9564 102.902 31.077 102.813 31.1659C102.724 31.2548 102.603 31.3047 102.478 31.3047H100.344C100.218 31.3047 100.098 31.2548 100.009 31.1659C99.92 31.077 99.87 30.9564 99.87 30.8307V29.1574L98.6184 28.1145C98.5708 28.0744 98.5315 28.0253 98.5028 27.97C98.4742 27.9146 98.4567 27.8542 98.4514 27.7921C98.4461 27.7301 98.4531 27.6676 98.472 27.6082C98.4909 27.5488 98.5213 27.4938 98.5615 27.4462L99.7468 26.0241C99.8217 25.9347 99.927 25.8761 100.042 25.8595C100.158 25.8429 100.275 25.8694 100.373 25.934L101.534 26.7114L103.061 25.7207L100.975 23.8246C100.922 23.7761 100.88 23.7161 100.854 23.6492C100.827 23.5824 100.816 23.5104 100.822 23.4386C100.827 23.3669 100.849 23.2974 100.885 23.2353C100.922 23.1733 100.972 23.1203 101.032 23.0804L102.454 22.1323C102.531 22.0814 102.622 22.0542 102.715 22.0542C102.807 22.0542 102.898 22.0814 102.975 22.1323L106.024 24.1138L108.394 22.7818C108.713 22.5821 109.096 22.5121 109.464 22.5861C109.833 22.6602 110.159 22.8727 110.376 23.1799C110.493 23.346 110.576 23.534 110.619 23.7327C110.662 23.9314 110.665 24.1368 110.627 24.3366C110.584 24.5316 110.502 24.7159 110.387 24.8788C110.271 25.0416 110.124 25.1796 109.954 25.2846L107.413 26.8205L106.981 30.935C106.97 31.0351 106.927 31.1291 106.859 31.2032C106.791 31.2774 106.701 31.3279 106.602 31.3474L104.943 31.684L104.848 31.7029ZM104.848 27.0385C104.931 27.0405 105.012 27.0616 105.085 27.1001C105.157 27.1419 105.217 27.202 105.259 27.2744C105.301 27.3469 105.322 27.429 105.322 27.5125V30.6506L106.076 30.4989L106.512 26.5123C106.521 26.4404 106.546 26.3713 106.585 26.3105C106.625 26.2497 106.677 26.1987 106.74 26.1616L109.475 24.5025C109.536 24.4632 109.589 24.4118 109.63 24.3515C109.671 24.2912 109.699 24.2232 109.712 24.1517C109.728 24.0808 109.729 24.0074 109.714 23.9362C109.7 23.8651 109.67 23.7979 109.627 23.7393C109.547 23.6266 109.426 23.5491 109.29 23.5226C109.154 23.4962 109.014 23.5228 108.897 23.5971L106.237 25.0855C106.165 25.1271 106.083 25.149 106 25.149C105.917 25.149 105.835 25.1271 105.763 25.0855L102.734 23.123L102.075 23.5592L104.17 25.4553C104.224 25.5037 104.266 25.564 104.294 25.6314C104.321 25.6988 104.332 25.7715 104.327 25.844C104.32 25.9167 104.298 25.9871 104.26 26.0496C104.222 26.1121 104.17 26.165 104.108 26.2042L101.8 27.6784C101.723 27.7284 101.633 27.755 101.541 27.755C101.449 27.755 101.36 27.7284 101.283 27.6784L100.216 26.9674L99.6045 27.6974L100.648 28.5649C100.701 28.6094 100.744 28.6652 100.774 28.7283C100.803 28.7914 100.818 28.8602 100.818 28.9299V30.3519H102.003V28.9299C102.003 28.8476 102.025 28.7668 102.066 28.6953C102.106 28.6238 102.165 28.5642 102.236 28.5222L104.606 27.1001C104.68 27.0596 104.764 27.0384 104.848 27.0385Z" fill="#9E9E9E"></path><path d="M173.9 121.393H1.44821C1.32248 121.393 1.20189 121.343 1.11298 121.255C1.02407 121.166 0.974121 121.045 0.974121 120.919C0.974121 120.794 1.02407 120.673 1.11298 120.584C1.20189 120.495 1.32248 120.445 1.44821 120.445H173.9C174.025 120.445 174.146 120.495 174.235 120.584C174.324 120.673 174.374 120.794 174.374 120.919C174.374 121.045 174.324 121.166 174.235 121.255C174.146 121.343 174.025 121.393 173.9 121.393Z" fill="#333333"></path><path d="M105.422 69.4873H60.7193C57.4412 69.4873 54.7837 72.1444 54.7837 75.4221V109.689C54.7837 112.967 57.4412 115.624 60.7193 115.624H105.422C108.7 115.624 111.357 112.967 111.357 109.689V75.4221C111.357 72.1444 108.7 69.4873 105.422 69.4873Z" fill="white"></path><path d="M105.422 116.103H60.7193C59.0193 116.1 57.3897 115.424 56.188 114.221C54.9864 113.019 54.3108 111.389 54.3096 109.689V75.4268C54.3108 73.727 54.9864 72.0971 56.188 70.8948C57.3897 69.6924 59.0193 69.0157 60.7193 69.0132H105.422C106.265 69.0113 107.101 69.1758 107.881 69.4972C108.662 69.8186 109.371 70.2907 109.968 70.8864C110.566 71.482 111.04 72.1897 111.364 72.9688C111.687 73.7478 111.854 74.5831 111.855 75.4268V109.689C111.854 110.533 111.687 111.368 111.364 112.147C111.04 112.926 110.566 113.634 109.968 114.23C109.371 114.825 108.662 115.297 107.881 115.619C107.101 115.94 106.265 116.105 105.422 116.103ZM60.7193 69.9613C59.2708 69.9638 57.8823 70.5405 56.8585 71.5651C55.8347 72.5897 55.259 73.9784 55.2578 75.4268V109.689C55.259 111.138 55.8347 112.526 56.8585 113.551C57.8823 114.576 59.2708 115.152 60.7193 115.155H105.422C106.141 115.157 106.853 115.017 107.519 114.743C108.184 114.469 108.788 114.067 109.298 113.559C109.807 113.052 110.212 112.449 110.488 111.785C110.764 111.121 110.906 110.409 110.907 109.689V75.4268C110.906 73.9784 110.33 72.5897 109.306 71.5651C108.282 70.5405 106.894 69.9638 105.445 69.9613H60.7193Z" fill="#333333"></path><path d="M58.1781 76.038C58.1297 76.0374 58.0818 76.0295 58.0358 76.0144C57.9177 75.9762 57.8193 75.8933 57.7617 75.7834C57.7041 75.6735 57.6919 75.5454 57.7277 75.4266C58.0329 74.5065 58.6205 73.7061 59.407 73.1393C60.1935 72.5725 61.1388 72.2681 62.1083 72.2695H103.795C103.921 72.2695 104.042 72.3195 104.131 72.4084C104.219 72.4973 104.269 72.6178 104.269 72.7436C104.269 72.8693 104.219 72.9899 104.131 73.0788C104.042 73.1676 103.921 73.2176 103.795 73.2176H62.113C61.3437 73.2167 60.5935 73.458 59.9689 73.9072C59.3444 74.3565 58.877 74.9908 58.6332 75.7205C58.6003 75.8145 58.5387 75.8958 58.457 75.9528C58.3753 76.0098 58.2777 76.0396 58.1781 76.038Z" fill="#333333"></path><path d="M118.625 111.562C117.402 107.969 115.25 102.968 115.25 102.968C115.25 102.968 111.457 92.421 109.679 88.9843C108.518 86.7374 104.308 82.4048 99.7943 80.6272C99.5604 80.5776 99.3223 80.5506 99.0832 80.5466L89.4828 80.4565H69.9834C69.9044 80.4683 69.8288 80.4967 69.7618 80.5401C69.6947 80.5834 69.6377 80.6406 69.5946 80.7078C68.6227 80.7078 63.6684 80.8926 59.7335 84.1018C57.5906 85.8557 53.7694 94.3739 50.6309 101.963C47.3596 109.884 44.9417 115.141 45.4964 118.317C46.5252 124.242 52.7264 125.072 55.0968 125.664C57.0643 126.138 64.7114 128.471 66.6552 128.655L66.75 128.49V128.584H99.3439V128.475C100.216 128.295 104.678 127.366 109.143 126.214C114.041 124.953 118.218 124.185 119.28 121.218C120.659 117.359 119.839 115.117 118.625 111.562ZM66.1337 117.364L58.1784 114.88L64.792 101.641V101.518C64.8252 101.883 64.8537 102.115 64.8537 102.115L65.9062 109.329L65.7876 116.914L66.2048 117.388L66.1337 117.364ZM100.543 116.416L101.179 116.184L100.885 108.95L101.596 102.342L101.653 102.816L101.748 102.722L107.185 114.932L100.543 116.416Z" fill="white"></path><path d="M47.8525 121.564L66.6266 125.607C66.6985 125.623 66.7626 125.664 66.8083 125.722C66.8541 125.779 66.8786 125.851 66.8779 125.925L66.8305 128.247C66.8303 128.296 66.8188 128.344 66.7968 128.388C66.7748 128.431 66.743 128.469 66.7039 128.498C66.6647 128.527 66.6194 128.546 66.5714 128.555C66.5234 128.563 66.4741 128.56 66.4275 128.546L49.8342 124.067C49.7865 124.056 49.7424 124.033 49.7062 124L47.5728 122.104C47.5269 122.056 47.4973 121.994 47.488 121.928C47.4787 121.862 47.4902 121.794 47.5209 121.735C47.5517 121.675 47.6001 121.627 47.6595 121.596C47.7189 121.566 47.7863 121.554 47.8525 121.564Z" fill="#D9D9D9"></path><path d="M66.9918 91.1362L55.2959 114.364L58.6098 115.283L65.157 101.001L66.9918 91.1362Z" fill="#D9D9D9"></path><path d="M118.583 121.564L99.8132 125.607C99.7404 125.622 99.6752 125.662 99.6285 125.72C99.5819 125.778 99.5566 125.85 99.5571 125.925L99.6045 128.248C99.6057 128.296 99.6178 128.343 99.6401 128.386C99.6623 128.429 99.6941 128.467 99.733 128.495C99.7718 128.524 99.8168 128.544 99.8644 128.553C99.912 128.561 99.9609 128.559 100.008 128.546L116.601 124.067C116.649 124.056 116.693 124.033 116.729 124L118.862 122.104C118.908 122.056 118.938 121.994 118.947 121.928C118.956 121.862 118.945 121.794 118.914 121.735C118.883 121.675 118.835 121.627 118.776 121.596C118.716 121.566 118.649 121.554 118.583 121.564Z" fill="#D9D9D9"></path><path d="M109.779 114.439L101.482 91.449C101.45 91.3588 101.387 91.2828 101.305 91.2344C101.222 91.1859 101.125 91.168 101.031 91.1838C100.936 91.1997 100.85 91.2482 100.788 91.3209C100.726 91.3937 100.691 91.486 100.69 91.5817C100.69 91.5817 102.279 96.4926 102.35 98.5594C102.383 99.4553 101.842 102.826 101.842 102.826L107.408 115.387C107.408 115.387 109.959 114.69 109.779 114.439Z" fill="#D9D9D9"></path><path d="M94.001 80.4561C98.7656 80.4561 99.216 80.5414 101.236 81.3235C105.502 82.9684 109.338 86.2629 110.077 91.7521C110.077 91.7521 106.759 82.9162 98.3342 82.1815C96.8928 82.0488 95.4423 82.0488 94.001 82.1815V80.4561Z" fill="#D9D9D9"></path><path d="M73.2021 80.4563C68.4375 80.4563 67.9871 80.5416 65.9675 81.3238C61.6769 82.9687 56.6895 86.1446 55.9072 91.6481C55.9072 91.6481 60.4206 82.926 68.8263 82.1676C70.2676 82.0348 71.7181 82.0348 73.1595 82.1676V80.4326L73.2021 80.4563Z" fill="#D9D9D9"></path><path d="M89.6672 75.2563C89.6672 75.2563 87.932 78.2901 83.5988 78.2901C79.2656 78.2901 77.5352 75.2563 77.5352 75.2563C77.5352 75.2563 81.9964 76.9486 83.5988 76.9913C85.0732 77.0339 89.6672 75.2563 89.6672 75.2563Z" fill="#595959"></path><path d="M97.7459 64.7139C97.6233 64.2388 97.4009 63.7952 97.0936 63.4127C96.7862 63.0302 96.4009 62.7175 95.9633 62.4955C95.3343 62.4124 94.7313 62.192 94.1971 61.8499C93.6628 61.5078 93.2105 61.0523 92.872 60.5157C92.5336 59.9792 92.3174 59.3747 92.2388 58.7453C92.1601 58.1158 92.221 57.4768 92.4171 56.8735C91.3726 56.9375 90.3411 56.6155 89.5186 55.9688C88.6961 55.322 88.1399 54.3956 87.9559 53.3657L87.8658 53.4084L87.6524 53.6217C87.1414 54.2499 86.4646 54.7223 85.6987 54.9854C84.9328 55.2485 84.1084 55.2917 83.3192 55.1101C83.2003 55.3565 83.054 55.5886 82.8831 55.8022C82.2809 56.5352 81.4545 57.05 80.5311 57.2675C79.6077 57.4851 78.6385 57.3933 77.7723 57.0062C77.6976 57.6706 77.4698 58.3086 77.1067 58.8701C76.7437 59.4316 76.2554 59.9012 75.6801 60.2421C75.1049 60.583 74.4584 60.7858 73.7915 60.8346C73.1246 60.8834 72.4555 60.777 71.8367 60.5235V62.121C71.3842 62.1745 70.9467 62.3166 70.5493 62.5393C70.1518 62.762 69.8022 63.0609 69.5203 63.4188C69.2385 63.7768 69.0301 64.1868 68.9069 64.6254C68.7837 65.0639 68.7482 65.5225 68.8025 65.9748C68.9004 66.7452 69.2515 67.4613 69.8007 68.0105C70.35 68.5596 71.0661 68.9107 71.8367 69.0086C71.9201 70.8677 72.4825 72.6738 73.4692 74.2518C74.456 75.8297 75.8337 77.126 77.4689 78.0151L77.5353 78.053V80.371H73.2021V83.9214C73.2021 83.9214 73.6335 94.3216 83.5989 94.3216C92.7015 94.3216 94.0005 83.9214 94.0005 83.9214V80.371H89.6673V78.0009C92.3175 77.2756 95.1478 72.706 95.2332 68.928C96.1252 68.7022 96.891 68.1314 97.3622 67.3411C97.8334 66.5509 97.9714 65.6059 97.7459 64.7139Z" fill="#808080"></path><path d="M75.8002 80.4565H73.2021V82.1915H75.8002V80.4565Z" fill="#595959"></path><path d="M93.996 80.4565H91.3979V82.1915H93.996V80.4565Z" fill="#595959"></path><path d="M103.577 60.7985C103.858 60.1731 103.989 59.4906 103.959 58.8056C103.928 58.1207 103.737 57.4525 103.402 56.8546C103.9 55.7362 104.071 54.4996 103.895 53.288C103.719 52.0765 103.202 50.9398 102.406 50.0096C102.761 49.0055 102.731 47.9058 102.323 46.9221C101.915 45.9385 101.158 45.1404 100.197 44.6816C99.8125 43.1629 99.0194 41.7786 97.9036 40.6788C96.7878 39.5791 95.392 38.806 93.8678 38.4434C93.2028 37.2933 92.1318 36.4334 90.8651 36.0326C89.5984 35.6318 88.2276 35.719 87.0219 36.2771C85.7726 35.5851 84.3721 35.2114 82.9441 35.1891C81.5161 35.1667 80.1046 35.4965 78.8343 36.1491C77.7866 35.7929 76.6545 35.7684 75.5923 36.0789C74.5302 36.3893 73.5895 37.0197 72.8987 37.884L72.5099 38.4055C70.4788 38.7528 68.6444 39.8299 67.3518 41.4345C66.6564 42.2578 66.1397 43.2166 65.8347 44.2502C65.3106 44.4774 64.8365 44.8058 64.4395 45.2166C64.0426 45.6273 63.7306 46.1123 63.5214 46.6438C63.3122 47.1752 63.21 47.7428 63.2205 48.3138C63.231 48.8849 63.3541 49.4483 63.5827 49.9717L63.3647 50.185C62.6528 51.0602 62.1792 52.1045 61.9898 53.2166C61.8004 54.3286 61.9017 55.4708 62.2837 56.5322C61.7664 57.2463 61.4769 58.1 61.4532 58.9814C61.4296 59.8628 61.6728 60.7308 62.151 61.4716C62.0278 62.4327 62.1195 63.4092 62.4196 64.3306C62.7197 65.252 63.2206 66.0953 63.8862 66.7996C63.7825 67.8738 63.9444 68.9569 64.3578 69.9538C64.7711 70.9507 65.4232 71.8307 66.2566 72.5164C66.7143 72.8689 67.2068 73.1739 67.7263 73.4265C67.9124 74.1116 68.2319 74.7534 68.6664 75.3149C69.1008 75.8765 69.6418 76.3468 70.2583 76.6991C70.8748 77.0513 71.5548 77.2785 72.2592 77.3677C72.9636 77.4568 73.6788 77.4062 74.3636 77.2187C74.8012 77.1006 75.2218 76.927 75.6152 76.702C74.4792 75.7528 73.5548 74.576 72.9016 73.2476C72.2483 71.9193 71.8807 70.4687 71.8225 68.9896C71.0519 68.8918 70.3358 68.5407 69.7865 67.9915C69.2373 67.4424 68.8861 66.7263 68.7883 65.9559C68.734 65.5035 68.7695 65.045 68.8927 64.6064C69.0159 64.1678 69.2243 63.7578 69.5061 63.3999C69.788 63.0419 70.1376 62.743 70.5351 62.5203C70.9325 62.2976 71.37 62.1555 71.8225 62.102V60.5046C72.8024 60.9054 73.895 60.934 74.8946 60.5851C75.0741 60.5191 75.2498 60.4431 75.4208 60.3576H75.4683C75.633 60.2726 75.7914 60.176 75.9423 60.0685L75.9945 60.0305C76.1449 59.9256 76.2875 59.81 76.4212 59.6845L76.4496 59.656C76.5862 59.5251 76.7144 59.3858 76.8336 59.2389C76.9471 59.0872 77.0516 58.9289 77.1465 58.7649L77.1845 58.7033C77.2744 58.5502 77.3552 58.3919 77.4263 58.2292L77.4594 58.1439C77.5299 57.9776 77.5885 57.8065 77.6349 57.632C77.6327 57.6083 77.6327 57.5845 77.6349 57.5609C77.6796 57.3732 77.7144 57.1833 77.7392 56.992C78.6063 57.378 79.5762 57.4683 80.4997 57.249C81.4231 57.0298 82.2489 56.5131 82.8499 55.7785C83.0208 55.5649 83.1671 55.3328 83.286 55.0864C83.4683 55.1317 83.6538 55.1634 83.8407 55.1812H84.0446C84.1584 55.1812 84.2722 55.1812 84.3859 55.1812C84.4997 55.1812 84.5614 55.1812 84.6467 55.1812L84.9122 55.1481C85.0118 55.1481 85.1161 55.1149 85.2156 55.0912L85.391 55.039C85.9912 54.8741 86.55 54.585 87.0314 54.1905C87.2628 54.0204 87.4786 53.8301 87.6762 53.6217L87.8895 53.4084L87.9796 53.3657C88.078 53.9528 88.2976 54.513 88.6243 55.0106C89.1154 55.7308 89.8152 56.2833 90.6298 56.5938C90.7625 56.6412 90.8952 56.6886 91.0327 56.7266C91.175 56.7645 91.3172 56.7977 91.4594 56.8214C91.7728 56.872 92.0908 56.8879 92.4076 56.8688C92.2784 57.2754 92.2082 57.6984 92.199 58.1249C92.199 58.215 92.199 58.3098 92.199 58.4046C92.1966 58.4441 92.1966 58.4837 92.199 58.5231C92.2035 58.6105 92.213 58.6975 92.2275 58.7838C92.2275 58.8265 92.2275 58.8739 92.2275 58.9213C92.2275 58.9687 92.2606 59.0872 92.2796 59.1678C92.2986 59.2484 92.2796 59.2579 92.3128 59.3053C92.3321 59.3871 92.3558 59.4678 92.3839 59.547L92.4266 59.6797C92.4598 59.7556 92.4882 59.8362 92.5214 59.912L92.5783 60.0353L92.6921 60.2675L92.7537 60.3718L92.8959 60.6041L92.9528 60.6799C93.0086 60.7636 93.0688 60.8443 93.133 60.9217C93.8235 61.7864 94.8231 62.349 95.9206 62.4907C96.5494 62.808 97.0658 63.3103 97.4004 63.9299C97.7351 64.5495 97.8718 65.2567 97.7923 65.9564C97.7128 66.6561 97.4208 67.3146 96.9556 67.8434C96.4904 68.3721 95.8745 68.7457 95.1905 68.9138C95.1147 72.3031 92.8201 76.3228 90.4496 77.6406C91.196 78.2787 92.0995 78.7057 93.0664 78.8774C94.0333 79.0491 95.0286 78.9592 95.9491 78.6171C97.2449 78.1347 98.3161 77.1896 98.956 75.9641C99.596 74.7386 99.7594 73.3196 99.4147 71.9807C100.615 71.5422 101.628 70.704 102.283 69.6068C102.939 68.5097 103.196 67.2205 103.013 65.9559C103.509 65.2025 103.819 64.342 103.917 63.4452C104.016 62.5485 103.899 61.6412 103.577 60.7985Z" fill="#333333"></path><path d="M58.3015 115.184C58.2344 115.183 58.1682 115.169 58.1071 115.141C57.9929 115.089 57.9038 114.994 57.8594 114.877C57.8149 114.76 57.8188 114.63 57.8701 114.515C58.036 114.15 61.8951 105.571 62.9903 103.395C63.0471 103.283 63.1459 103.198 63.2649 103.159C63.3839 103.12 63.5136 103.13 63.6256 103.186C63.7372 103.243 63.8219 103.342 63.861 103.461C63.9 103.58 63.8904 103.709 63.8342 103.821C62.7485 105.978 58.7756 114.814 58.7329 114.904C58.6956 114.987 58.635 115.058 58.5584 115.107C58.4819 115.157 58.3927 115.184 58.3015 115.184Z" fill="#333333"></path><path d="M107.764 115.222C107.671 115.222 107.581 115.195 107.503 115.145C107.426 115.094 107.365 115.022 107.328 114.937C107.295 114.852 103.772 106.608 102.686 104.452C102.64 104.341 102.638 104.217 102.679 104.105C102.721 103.993 102.803 103.9 102.91 103.846C103.017 103.792 103.14 103.781 103.255 103.814C103.37 103.847 103.469 103.922 103.53 104.025C104.63 106.206 108.058 114.221 108.2 114.563C108.249 114.678 108.251 114.808 108.205 114.924C108.159 115.04 108.068 115.134 107.954 115.184C107.894 115.21 107.829 115.223 107.764 115.222Z" fill="#333333"></path><path d="M118.047 108.467L117.971 108.268C117.549 107.201 117.023 105.85 116.463 104.347C114.439 99.043 111.666 91.7762 109.93 88.7045C107.56 84.5331 105.839 83.1395 104.407 82.1582C102.128 80.5919 99.4215 79.7645 96.6557 79.7881H91.4407C91.315 79.7881 91.1944 79.838 91.1055 79.9269C91.0166 80.0158 90.9666 80.1364 90.9666 80.2621C90.9666 87.2635 86.1498 88.0172 84.078 88.0172C76.5352 88.0172 76.3171 81.0537 76.3171 80.2621C76.3171 80.1364 76.2672 80.0158 76.1783 79.9269C76.0894 79.838 75.9688 79.7881 75.843 79.7881H70.225C68.689 79.7881 60.819 80.1768 56.5427 87.8465C55.6609 89.4156 49.346 104.167 47.0608 109.704C44.9796 114.686 44.6904 117.023 45.7429 120.132C46.165 121.253 46.8464 122.258 47.7314 123.064C48.6164 123.871 49.6798 124.456 50.8346 124.773C54.7886 125.972 66.7594 128.783 66.8827 128.807C66.9189 128.812 66.9555 128.812 66.9917 128.807C67.0987 128.807 67.2022 128.77 67.2857 128.703C67.3415 128.659 67.3867 128.603 67.4179 128.539C67.4491 128.475 67.4655 128.404 67.4658 128.333V118.582C67.466 118.166 67.3678 117.755 67.1792 117.383C66.9905 117.012 66.7167 116.69 66.3801 116.445C66.3829 116.429 66.3829 116.413 66.3801 116.397C66.8542 109.386 66.309 106.381 65.9345 104.181C65.6315 102.773 65.5293 101.329 65.6311 99.8915C65.7773 97.8451 66.2444 95.8343 67.0154 93.933C67.4244 93.0364 67.6654 92.0724 67.7266 91.0889C67.7266 90.9631 67.6766 90.8426 67.5877 90.7537C67.4988 90.6648 67.3782 90.6148 67.2525 90.6148C67.1267 90.6148 67.0061 90.6648 66.9172 90.7537C66.8283 90.8426 66.7784 90.9631 66.7784 91.0889C66.7143 91.96 66.4943 92.8126 66.1289 93.6059C65.3291 95.5892 64.849 97.6868 64.7066 99.8204C64.6027 101.337 64.7096 102.86 65.0242 104.347C65.4083 106.58 65.8823 109.363 65.4983 116.018C65.4177 116.018 65.3371 115.971 65.2518 115.956C60.8001 115.245 54.8217 113.795 54.7554 113.781C54.6354 113.756 54.5104 113.778 54.4067 113.844C54.303 113.909 54.2286 114.012 54.1992 114.131C54.1698 114.25 54.1875 114.376 54.2488 114.482C54.3101 114.588 54.4101 114.666 54.5278 114.7C54.5894 114.7 60.6152 116.174 65.1048 116.895C65.5085 116.957 65.8764 117.162 66.1417 117.473C66.4071 117.783 66.5522 118.179 66.5508 118.587V127.703C64.095 127.124 54.5657 124.858 51.1428 123.82C50.1322 123.546 49.2007 123.037 48.4245 122.334C47.6483 121.632 47.0495 120.755 46.6768 119.777C45.6954 116.933 45.9752 114.823 47.9664 110.04C50.1519 104.674 56.5237 89.79 57.3913 88.2732C61.4116 81.0869 68.8075 80.7219 70.2487 80.7219H75.4069C75.5159 82.5043 76.3551 88.0314 82.5183 88.8515C82.4 89.0698 82.3381 89.3142 82.3381 89.5625C82.3601 89.9606 82.5338 90.3352 82.8234 90.6093C83.1131 90.8834 83.4967 91.0361 83.8955 91.0361C84.2943 91.0361 84.678 90.8834 84.9676 90.6093C85.2573 90.3352 85.4309 89.9606 85.4529 89.5625C85.4503 89.3232 85.3919 89.0879 85.2822 88.8752C87.6527 88.5623 91.7441 87.0881 91.9195 80.7219H96.6605C99.2279 80.7066 101.738 81.4792 103.852 82.9356C105.199 83.8552 106.825 85.173 109.067 89.1643C110.769 92.1696 113.524 99.3938 115.539 104.67C116.113 106.177 116.629 107.514 117.051 108.604L117.127 108.798C118.952 113.444 120.531 117.454 119.569 120.265C119.188 121.19 118.598 122.015 117.844 122.673C117.091 123.331 116.194 123.805 115.226 124.057L99.8938 127.707V117.089C103.762 116.359 110.798 114.719 110.879 114.719C111.004 114.691 111.114 114.614 111.183 114.505C111.251 114.396 111.274 114.264 111.246 114.138C111.218 114.013 111.141 113.903 111.032 113.834C110.923 113.766 110.791 113.743 110.665 113.771C110.604 113.771 105.749 114.909 101.899 115.705C101.79 114.43 101.112 105.75 102.241 102.807C103.663 99.0999 102.591 95.8244 101.809 93.4306C101.511 92.6699 101.314 91.8728 101.226 91.0604C101.226 90.9347 101.176 90.8141 101.087 90.7252C100.998 90.6363 100.878 90.5864 100.752 90.5864C100.626 90.5864 100.506 90.6363 100.417 90.7252C100.328 90.8141 100.278 90.9347 100.278 91.0604C100.363 91.9689 100.575 92.8609 100.908 93.7102C101.648 95.9666 102.653 99.0572 101.354 102.447C100.098 105.713 100.88 115.013 100.965 115.876C100.373 115.994 99.8227 116.103 99.3344 116.193C99.2239 116.213 99.1242 116.272 99.053 116.359C98.9818 116.446 98.9438 116.555 98.9456 116.667V128.281C98.9456 128.407 98.9956 128.527 99.0845 128.616C99.1734 128.705 99.294 128.755 99.4197 128.755C99.4559 128.76 99.4925 128.76 99.5287 128.755L115.444 124.963C117.658 124.437 119.773 122.593 120.465 120.569C121.579 117.43 119.943 113.269 118.047 108.467ZM83.8742 90.1693C83.7219 90.1558 83.5802 90.0858 83.4769 89.9731C83.3737 89.8603 83.3164 89.713 83.3164 89.5601C83.3164 89.4073 83.3737 89.2599 83.4769 89.1472C83.5802 89.0344 83.7219 88.9645 83.8742 88.951C83.9587 88.9436 84.0438 88.9538 84.1242 88.981C84.2046 89.0082 84.2784 89.0518 84.341 89.1091C84.4036 89.1664 84.4535 89.2361 84.4877 89.3137C84.5219 89.3914 84.5396 89.4753 84.5396 89.5601C84.5396 89.645 84.5219 89.7289 84.4877 89.8065C84.4535 89.8842 84.4036 89.9539 84.341 90.0111C84.2784 90.0684 84.2046 90.1121 84.1242 90.1393C84.0438 90.1665 83.9587 90.1767 83.8742 90.1693Z" fill="#333333"></path><path d="M94.0577 83.2393C93.932 83.2393 93.8114 83.2892 93.7225 83.3781C93.6336 83.467 93.5836 83.5876 93.5836 83.7133C93.5836 88.0459 88.7716 93.6394 83.6561 93.6394C78.3131 93.6394 73.7333 88.1833 73.7333 83.7133C73.7333 83.5876 73.6834 83.467 73.5945 83.3781C73.5056 83.2892 73.385 83.2393 73.2592 83.2393C73.1335 83.2393 73.0129 83.2892 72.924 83.3781C72.8351 83.467 72.7852 83.5876 72.7852 83.7133C72.7852 89.7382 78.735 94.5874 83.6561 94.5874C88.9423 94.5874 94.5318 88.9987 94.5318 83.7133C94.5318 83.5876 94.4819 83.467 94.393 83.3781C94.3041 83.2892 94.1835 83.2393 94.0577 83.2393Z" fill="#333333"></path><path d="M103.928 56.8499C104.392 55.7114 104.545 54.47 104.371 53.253C104.197 52.036 103.702 50.8871 102.937 49.9244C103.244 48.8715 103.179 47.7452 102.753 46.7344C102.328 45.7237 101.567 44.8901 100.6 44.3736C100.18 42.8473 99.3648 41.4588 98.237 40.3478C97.1092 39.2368 95.7085 38.4426 94.176 38.0453C93.4473 36.8905 92.3353 36.0292 91.035 35.6122C89.7346 35.1953 88.329 35.2495 87.0646 35.7652C85.7897 35.1038 84.3773 34.7511 82.9412 34.7354C81.505 34.7198 80.0853 35.0417 78.7964 35.6752C77.674 35.3331 76.4749 35.335 75.3536 35.6805C74.2323 36.0261 73.2402 36.6995 72.5052 37.614L72.2254 37.9837C70.1584 38.3871 68.2999 39.5067 66.9772 41.1454C66.2827 41.9596 65.7573 42.9039 65.4317 43.9232C64.3724 44.4479 63.5423 45.3426 63.0984 46.4381C62.6546 47.5335 62.6278 48.7537 63.0233 49.8675L62.9901 49.9054C62.2527 50.807 61.7532 51.879 61.537 53.0234C61.3208 54.1678 61.395 55.3481 61.7527 56.4565C61.2587 57.2152 60.9878 58.0974 60.971 59.0026C60.9543 59.9078 61.1923 60.7995 61.6579 61.576C61.5539 62.5454 61.6551 63.5258 61.9548 64.4535C62.2546 65.3813 62.7462 66.2356 63.3978 66.9609C63.3293 68.0809 63.5268 69.2011 63.9742 70.2302C64.4216 71.2592 65.1063 72.1677 65.9721 72.8815C66.3999 73.2154 66.8587 73.5075 67.3423 73.7537C67.7939 75.2078 68.7913 76.4305 70.1253 77.165C71.4592 77.8995 73.0259 78.0887 74.4963 77.6928C74.9219 77.5807 75.3337 77.4217 75.7242 77.2188C76.1469 77.5661 76.5936 77.8829 77.0612 78.1669V82.6038C77.0612 82.7295 77.1111 82.85 77.2 82.9389C77.289 83.0278 77.4095 83.0778 77.5353 83.0778C77.661 83.0778 77.7816 83.0278 77.8705 82.9389C77.9594 82.85 78.0094 82.7295 78.0094 82.6038V78.6599C79.6149 79.4469 81.3794 79.8555 83.1675 79.8544H84.0351C85.8232 79.8555 87.5877 79.4469 89.1932 78.6599V82.6038C89.1932 82.7295 89.2432 82.85 89.3321 82.9389C89.421 83.0278 89.5416 83.0778 89.6673 83.0778C89.7931 83.0778 89.9137 83.0278 90.0026 82.9389C90.0915 82.85 90.1414 82.7295 90.1414 82.6038V78.1384L90.2694 78.0578C91.339 78.9361 92.6782 79.4198 94.0622 79.4278C94.7747 79.4284 95.4815 79.2999 96.1482 79.0486C97.4815 78.5512 98.5978 77.6015 99.3022 76.3652C100.007 75.1289 100.255 73.6846 100.003 72.2842C101.174 71.7581 102.148 70.8738 102.784 69.7587C103.421 68.6435 103.687 67.3552 103.544 66.0792C104.013 65.2974 104.304 64.422 104.396 63.5151C104.489 62.6083 104.381 61.6922 104.08 60.8317C104.337 60.195 104.457 59.5109 104.431 58.8246C104.405 58.1382 104.233 57.4652 103.928 56.8499ZM84.0161 78.9253H83.1486C80.2879 78.9216 77.5455 77.7837 75.5228 75.7612C73.5 73.7387 72.3619 70.9967 72.3582 68.1365V61.173C73.0253 61.3397 73.7203 61.3623 74.3968 61.2394C75.3107 61.074 76.1564 60.6455 76.8301 60.0064C77.5039 59.3673 77.9764 58.5453 78.1895 57.6415C79.1001 57.9217 80.0736 57.9234 80.9851 57.6464C81.8966 57.3693 82.7045 56.8262 83.305 56.0867C83.422 55.9375 83.5266 55.7789 83.6179 55.6127C84.3684 55.7266 85.1352 55.662 85.856 55.4239C86.5768 55.1859 87.2312 54.7812 87.7662 54.2428C88.0818 55.0949 88.6357 55.8383 89.3619 56.3846C90.0881 56.9309 90.9561 57.2569 91.8624 57.3239C91.6685 58.3876 91.8585 59.4855 92.3986 60.4221C92.9386 61.3588 93.7935 62.0734 94.8112 62.4387V68.127C94.81 70.9864 93.675 73.7287 91.655 75.7528C89.6351 77.7769 86.8949 78.9178 84.0351 78.9253H84.0161ZM71.4147 68.4399C70.7392 68.2579 70.148 67.8468 69.7423 67.2769C69.3367 66.707 69.1419 66.0138 69.1912 65.316C69.2323 64.6962 69.4694 64.1055 69.8682 63.6292C70.267 63.1529 70.807 62.8156 71.41 62.6662V68.1365C71.429 68.2408 71.4337 68.3403 71.4337 68.4399H71.4147ZM95.7547 68.1365V62.6947C96.2491 62.847 96.6949 63.1264 97.0477 63.5048C97.4004 63.8833 97.6477 64.3476 97.7648 64.8515C97.8524 65.2355 97.8593 65.6334 97.7851 66.0202C97.7108 66.407 97.557 66.7741 97.3334 67.0984C96.949 67.6671 96.3948 68.1001 95.7499 68.3356C95.7689 68.2787 95.7736 68.2076 95.7736 68.1365H95.7547ZM102.639 65.7095C102.575 65.8075 102.549 65.9257 102.567 66.0413C102.733 67.1974 102.497 68.3754 101.898 69.3781C101.299 70.3808 100.374 71.1474 99.2772 71.5495C99.1671 71.5894 99.0757 71.6686 99.0205 71.7719C98.9654 71.8751 98.9504 71.9952 98.9785 72.1088C99.2911 73.3332 99.1403 74.63 98.5548 75.7499C97.9694 76.8698 96.9907 77.734 95.8068 78.1763C95.0243 78.4717 94.18 78.5657 93.3516 78.4498C92.5232 78.3338 91.7373 78.0116 91.0659 77.5127C92.3639 76.5474 93.4486 75.3247 94.2522 73.9209C95.0557 72.5172 95.5608 70.9627 95.7357 69.3547C96.7277 69.0993 97.5915 68.4887 98.1631 67.6388C98.4595 67.2065 98.663 66.7176 98.7609 66.2028C98.8589 65.688 98.849 65.1585 98.732 64.6477C98.567 63.9415 98.2086 63.2952 97.697 62.7811C97.1854 62.2671 96.5407 61.9056 95.8353 61.7371L95.4465 61.666C93.3558 60.9834 92.3128 59.0352 92.9575 57.0206C92.9813 56.9472 92.9869 56.8691 92.9736 56.7931C92.9604 56.7171 92.9289 56.6455 92.8817 56.5845C92.8347 56.5231 92.7734 56.4743 92.7031 56.442C92.6329 56.4098 92.5559 56.3952 92.4787 56.3996C91.5497 56.4571 90.632 56.171 89.9003 55.5959C89.1686 55.0208 88.674 54.1967 88.5105 53.2805C88.4975 53.2076 88.4676 53.1387 88.4231 53.0794C88.3787 53.0202 88.3209 52.9721 88.2545 52.9392C88.189 52.9066 88.1168 52.8897 88.0436 52.8897C87.9704 52.8897 87.8981 52.9066 87.8326 52.9392L87.7425 52.9819C87.6992 53.0065 87.6593 53.0368 87.624 53.0719L87.3775 53.3232C86.9182 53.8837 86.3107 54.304 85.6243 54.5361C84.9378 54.7683 84.1999 54.8029 83.4946 54.6362C83.3906 54.6108 83.2811 54.6213 83.1838 54.666C83.0865 54.7108 83.0072 54.7872 82.9589 54.8827C82.858 55.1013 82.7306 55.3067 82.5796 55.4942C82.0454 56.1496 81.3097 56.6103 80.4867 56.8049C79.6638 56.9994 78.7996 56.917 78.0283 56.5702C77.9622 56.5369 77.8891 56.5195 77.815 56.5195C77.7409 56.5195 77.6678 56.5369 77.6017 56.5702C77.5371 56.6068 77.482 56.658 77.4408 56.7198C77.3996 56.7815 77.3735 56.8521 77.3646 56.9258C77.2993 57.5139 77.0991 58.0791 76.7795 58.5772C76.46 59.0753 76.0297 59.4929 75.5223 59.7975C75.0148 60.1021 74.4439 60.2855 73.854 60.3333C73.264 60.3812 72.671 60.2922 72.1211 60.0733C72.0558 60.05 71.9865 60.0403 71.9173 60.0449C71.7915 60.0449 71.671 60.0948 71.582 60.1837C71.4931 60.2726 71.4432 60.3932 71.4432 60.5189V61.6755C70.5964 61.8317 69.8257 62.2655 69.2531 62.9085C68.6804 63.5515 68.3384 64.3669 68.281 65.226C68.2058 66.2711 68.5466 67.3035 69.2292 68.0986C69.8135 68.7872 70.6201 69.2499 71.5096 69.4069C71.8043 72.1064 73.0277 74.6197 74.9704 76.5173C74.7385 76.6202 74.4992 76.7057 74.2546 76.7732C73.6292 76.9424 72.9765 76.9866 72.334 76.9033C71.6915 76.8199 71.0717 76.6107 70.5103 76.2875C69.9488 75.9643 69.4565 75.5335 69.0618 75.0198C68.6671 74.5061 68.3776 73.9196 68.2099 73.2939C68.1921 73.2296 68.161 73.1697 68.1185 73.1182C68.076 73.0668 68.0231 73.0249 67.9633 72.9952C67.4742 72.7584 67.0103 72.4726 66.579 72.142C65.8066 71.5043 65.2014 70.688 64.8156 69.7637C64.4298 68.8395 64.2751 67.8351 64.365 66.8376C64.3725 66.77 64.3654 66.7016 64.3441 66.637C64.3229 66.5724 64.2879 66.5131 64.2417 66.4632C63.6223 65.8118 63.1565 65.0302 62.8784 64.1756C62.6003 63.3209 62.517 62.4149 62.6345 61.5238C62.6488 61.4107 62.6219 61.2963 62.5587 61.2015C62.1305 60.5414 61.9131 59.7669 61.9351 58.9805C61.9571 58.194 62.2176 57.4329 62.6819 56.7978C62.726 56.7351 62.7541 56.6627 62.764 56.5867C62.7739 56.5108 62.7653 56.4336 62.7388 56.3617C62.3866 55.3838 62.2927 54.3316 62.4663 53.3069C62.6399 52.2822 63.0751 51.3195 63.7297 50.5122L63.9288 50.3178C63.9965 50.2504 64.0422 50.1641 64.06 50.0702C64.0778 49.9763 64.0667 49.8792 64.0284 49.7917C63.8242 49.325 63.7145 48.8225 63.7055 48.3132C63.6966 47.8039 63.7886 47.2978 63.9762 46.8243C64.1562 46.3479 64.4304 45.9127 64.7822 45.5446C65.1341 45.1765 65.5565 44.883 66.0243 44.6817C66.0881 44.6537 66.145 44.612 66.1909 44.5596C66.2368 44.5072 66.2706 44.4453 66.2898 44.3783C66.5747 43.4059 67.0591 42.5034 67.7121 41.7285C68.9358 40.2232 70.6641 39.2126 72.5763 38.8843C72.6968 38.8656 72.8055 38.8011 72.8797 38.7042L73.259 38.197C73.8889 37.4098 74.7465 36.8362 75.7147 36.5545C76.6828 36.2729 77.7144 36.2969 78.6684 36.6232C78.7294 36.6443 78.7942 36.6526 78.8586 36.6477C78.923 36.6428 78.9857 36.6248 79.0429 36.5948C80.2438 35.9767 81.5788 35.6646 82.9293 35.6861C84.2799 35.7076 85.6042 36.0621 86.7848 36.718C86.8504 36.7506 86.9226 36.7676 86.9958 36.7676C87.069 36.7676 87.1412 36.7506 87.2068 36.718C88.0419 36.3443 88.9643 36.2094 89.8715 36.3282C90.7788 36.447 91.6353 36.815 92.346 37.3912C92.7852 37.7584 93.1587 38.1976 93.4506 38.69C93.4827 38.7454 93.5258 38.7937 93.5771 38.832C93.6285 38.8702 93.687 38.8977 93.7493 38.9128C95.191 39.251 96.5116 39.9798 97.5662 41.0192C98.6208 42.0586 99.3687 43.3684 99.7276 44.8049C99.7446 44.8727 99.7763 44.9359 99.8206 44.99C99.8648 45.0441 99.9205 45.0877 99.9836 45.1178C100.839 45.5252 101.514 46.235 101.877 47.1103C102.241 47.9857 102.267 48.9645 101.951 49.858C101.922 49.9375 101.914 50.0233 101.929 50.1067C101.944 50.1901 101.981 50.2679 102.036 50.3321C102.777 51.1936 103.256 52.248 103.419 53.372C103.582 54.496 103.421 55.6431 102.956 56.6793C102.928 56.7477 102.916 56.8215 102.92 56.8953C102.924 56.9691 102.944 57.041 102.98 57.1059C103.28 57.6382 103.45 58.2337 103.476 58.844C103.503 59.4544 103.384 60.0623 103.132 60.6184C103.084 60.7338 103.084 60.8633 103.132 60.9787C103.433 61.7484 103.548 62.5787 103.465 63.4013C103.383 64.2238 103.106 65.015 102.657 65.7095H102.639Z" fill="#333333"></path><path d="M70.8172 67.4873C71.0554 67.4873 71.2486 67.2941 71.2486 67.0559C71.2486 66.8176 71.0554 66.6245 70.8172 66.6245C70.5789 66.6245 70.3857 66.8176 70.3857 67.0559C70.3857 67.2941 70.5789 67.4873 70.8172 67.4873Z" fill="#333333"></path><path d="M96.3806 67.4873C96.6189 67.4873 96.8121 67.2941 96.8121 67.0559C96.8121 66.8176 96.6189 66.6245 96.3806 66.6245C96.1424 66.6245 95.9492 66.8176 95.9492 67.0559C95.9492 67.2941 96.1424 67.4873 96.3806 67.4873Z" fill="#333333"></path><path d="M86.3488 62.249C86.2482 62.3244 86.1817 62.4367 86.1639 62.5611C86.1462 62.6856 86.1786 62.812 86.254 62.9126C86.2982 62.9715 86.3554 63.0192 86.4212 63.0522C86.4871 63.0851 86.5597 63.1022 86.6333 63.1022C86.7358 63.1022 86.8357 63.0689 86.9177 63.0074C87.3406 62.7041 87.848 62.541 88.3684 62.541C88.8889 62.541 89.3963 62.7041 89.8192 63.0074C89.9202 63.071 90.0415 63.0942 90.1589 63.0723C90.2762 63.0504 90.381 62.985 90.4523 62.8892C90.5235 62.7934 90.556 62.6743 90.5432 62.5556C90.5305 62.4369 90.4733 62.3274 90.3833 62.249C89.7987 61.8189 89.0919 61.5869 88.3661 61.5869C87.6403 61.5869 86.9335 61.8189 86.3488 62.249Z" fill="#333333"></path><path d="M76.3835 62.249C76.3337 62.2863 76.2917 62.3331 76.26 62.3867C76.2283 62.4402 76.2074 62.4995 76.1986 62.5611C76.1898 62.6228 76.1932 62.6855 76.2087 62.7458C76.2241 62.8061 76.2513 62.8628 76.2887 62.9126C76.3328 62.9715 76.3901 63.0192 76.4559 63.0522C76.5217 63.0851 76.5943 63.1022 76.6679 63.1022C76.7705 63.1022 76.8703 63.0689 76.9524 63.0074C77.3753 62.7041 77.8827 62.541 78.4031 62.541C78.9236 62.541 79.4309 62.7041 79.8539 63.0074C79.9541 63.0813 80.0795 63.1128 80.2028 63.0951C80.3261 63.0774 80.4375 63.0118 80.5128 62.9126C80.5502 62.8628 80.5774 62.8061 80.5928 62.7458C80.6083 62.6855 80.6117 62.6228 80.6029 62.5611C80.5941 62.4995 80.5732 62.4402 80.5415 62.3867C80.5098 62.3331 80.4678 62.2863 80.418 62.249C79.8334 61.8189 79.1266 61.5869 78.4008 61.5869C77.6749 61.5869 76.9681 61.8189 76.3835 62.249Z" fill="#333333"></path><path d="M84.3575 71.848C84.4832 71.848 84.6038 71.7981 84.6927 71.7092C84.7816 71.6203 84.8316 71.4997 84.8316 71.374C84.8316 71.2483 84.7816 71.1277 84.6927 71.0388C84.6038 70.9499 84.4832 70.9 84.3575 70.9C83.7885 70.9 83.6273 70.7767 83.5799 70.7199C83.5117 70.5413 83.5117 70.3438 83.5799 70.1652L84.0967 67.5676C84.1088 67.5053 84.1086 67.4413 84.096 67.3791C84.0834 67.317 84.0586 67.2579 84.0232 67.2053C83.9878 67.1527 83.9423 67.1076 83.8895 67.0726C83.8366 67.0375 83.7773 67.0133 83.7151 67.0011C83.6528 66.989 83.5888 66.9892 83.5266 67.0018C83.4644 67.0144 83.4053 67.0392 83.3527 67.0746C83.3001 67.11 83.255 67.1555 83.22 67.2083C83.1849 67.2612 83.1607 67.3205 83.1485 67.3827L82.6317 69.9756C82.561 70.2002 82.543 70.4381 82.5792 70.6708C82.6154 70.9034 82.7048 71.1246 82.8404 71.3171C83.0366 71.5147 83.275 71.6651 83.5378 71.757C83.8006 71.849 84.0809 71.8801 84.3575 71.848Z" fill="#333333"></path><path d="M86.0024 73.2415C85.2705 73.5277 84.4882 73.6626 83.7027 73.6382C82.9172 73.6137 82.1448 73.4304 81.4321 73.0993C81.3208 73.0408 81.1909 73.029 81.0709 73.0663C80.9509 73.1037 80.8506 73.1871 80.7921 73.2984C80.7633 73.3537 80.7458 73.4142 80.7405 73.4764C80.7352 73.5386 80.7422 73.6012 80.7611 73.6607C80.7801 73.7201 80.8106 73.7752 80.8509 73.8229C80.8912 73.8705 80.9405 73.9097 80.996 73.9383C81.8987 74.3795 82.8927 74.602 83.8974 74.5877C84.7492 74.6009 85.5946 74.4396 86.3817 74.1137C86.4902 74.0593 86.5737 73.9653 86.615 73.8511C86.6563 73.737 86.6522 73.6113 86.6035 73.5001C86.5549 73.3888 86.4654 73.3005 86.3536 73.2533C86.2418 73.206 86.116 73.2035 86.0024 73.2462V73.2415Z" fill="#333333"></path><path d="M78.4032 64.3584C78.6321 64.3609 78.8509 64.4532 79.0123 64.6155C79.1737 64.7778 79.2649 64.997 79.2661 65.2259V66.9608C79.2649 67.1897 79.1737 67.4089 79.0123 67.5712C78.8509 67.7335 78.6321 67.8258 78.4032 67.8283C78.1735 67.827 77.9536 67.7352 77.7911 67.5728C77.6287 67.4104 77.5369 67.1905 77.5356 66.9608V65.2259C77.5369 64.9962 77.6287 64.7763 77.7911 64.6138C77.9536 64.4514 78.1735 64.3596 78.4032 64.3584Z" fill="#333333"></path><path d="M88.3686 64.3584C88.5974 64.3609 88.8162 64.4532 88.9776 64.6155C89.139 64.7778 89.2302 64.997 89.2314 65.2259V66.9608C89.2302 67.1897 89.139 67.4089 88.9776 67.5712C88.8162 67.7335 88.5974 67.8258 88.3686 67.8283C88.1388 67.827 87.9189 67.7352 87.7565 67.5728C87.594 67.4104 87.5022 67.1905 87.501 66.9608V65.2259C87.5022 64.9962 87.594 64.7763 87.7565 64.6138C87.9189 64.4514 88.1388 64.3596 88.3686 64.3584Z" fill="#333333"></path><path d="M101.463 129.2H64.7303C64.2714 129.2 63.8312 129.018 63.5067 128.694C63.1822 128.369 62.9999 127.929 62.9999 127.47L60.6294 105.125C60.6294 104.35 60.9371 103.607 61.4848 103.06C62.0325 102.512 62.7753 102.205 63.5498 102.205H102.644C103.027 102.205 103.407 102.28 103.761 102.427C104.115 102.574 104.437 102.789 104.709 103.06C104.98 103.331 105.195 103.653 105.342 104.007C105.488 104.361 105.564 104.741 105.564 105.125L103.194 127.47C103.194 127.697 103.149 127.922 103.062 128.132C102.975 128.342 102.847 128.533 102.687 128.694C102.526 128.854 102.335 128.982 102.125 129.069C101.915 129.156 101.69 129.2 101.463 129.2Z" fill="#D8D8D8"></path><path d="M101.463 127.328H64.73C64.5029 127.329 64.278 127.284 64.0681 127.198C63.8582 127.112 63.6674 126.985 63.5066 126.824C63.3459 126.664 63.2183 126.474 63.1313 126.264C63.0443 126.054 62.9995 125.83 62.9995 125.603V127.47C62.9995 127.929 63.1818 128.369 63.5063 128.694C63.8309 129.018 64.271 129.2 64.73 129.2H101.463C101.922 129.2 102.362 129.018 102.686 128.694C103.011 128.369 103.193 127.929 103.193 127.47V125.603C103.193 125.83 103.148 126.054 103.061 126.264C102.974 126.474 102.847 126.664 102.686 126.824C102.525 126.985 102.334 127.112 102.125 127.198C101.915 127.284 101.69 127.329 101.463 127.328Z" fill="#9E9E9E"></path><path fill-rule="evenodd" clip-rule="evenodd" d="M72.2446 122.279L68.1626 120.383C68.0603 120.335 67.9493 120.307 67.8361 120.301C67.7229 120.295 67.6097 120.312 67.503 120.35C67.3963 120.389 67.2983 120.448 67.2146 120.524C67.1309 120.601 67.0632 120.693 67.0153 120.796L65.119 124.882C65.0219 125.09 65.0112 125.328 65.0894 125.544C65.1676 125.76 65.3283 125.936 65.5362 126.034L68.2622 127.309C68.4387 127.393 68.6304 127.441 68.8258 127.45C69.0213 127.459 69.2166 127.429 69.4 127.361L70.5568 126.944C70.7403 126.877 70.9089 126.775 71.0529 126.643C71.1969 126.512 71.3135 126.353 71.396 126.176L72.6713 123.446C72.7206 123.341 72.7487 123.228 72.754 123.112C72.7592 122.997 72.7415 122.882 72.7018 122.773C72.6621 122.665 72.6012 122.565 72.5227 122.481C72.4442 122.396 72.3497 122.327 72.2446 122.279Z" fill="#2BB24C"></path><path fill-rule="evenodd" clip-rule="evenodd" d="M67.4611 124.986C67.4409 125.042 67.409 125.094 67.3676 125.138C67.3262 125.181 67.2761 125.216 67.2206 125.239C67.1651 125.262 67.1054 125.273 67.0453 125.272C66.9852 125.27 66.926 125.256 66.8716 125.231C66.8172 125.205 66.7687 125.169 66.7293 125.123C66.6899 125.078 66.6604 125.025 66.6427 124.967C66.625 124.91 66.6195 124.85 66.6265 124.79C66.6336 124.73 66.653 124.673 66.6836 124.621L67.8214 122.184C67.8417 122.128 67.8736 122.076 67.915 122.033C67.9564 121.989 68.0065 121.955 68.062 121.931C68.1175 121.908 68.1772 121.897 68.2373 121.899C68.2974 121.9 68.3566 121.914 68.411 121.939C68.4654 121.965 68.5139 122.002 68.5533 122.047C68.5927 122.092 68.6222 122.145 68.6399 122.203C68.6576 122.26 68.6631 122.321 68.6561 122.38C68.649 122.44 68.6296 122.498 68.599 122.549L67.4611 124.986Z" fill="white"></path><path d="M69.6855 126.355C69.9095 126.274 70.0253 126.027 69.9441 125.803C69.8629 125.579 69.6154 125.463 69.3914 125.544C69.1674 125.626 69.0517 125.873 69.1329 126.097C69.2141 126.321 69.4615 126.437 69.6855 126.355Z" fill="white"></path><path fill-rule="evenodd" clip-rule="evenodd" d="M69.2718 124.318L68.7124 125.565C68.6884 125.616 68.6546 125.662 68.6128 125.7C68.571 125.739 68.522 125.768 68.4688 125.788C68.4155 125.807 68.3589 125.816 68.3023 125.813C68.2457 125.811 68.1901 125.797 68.1387 125.773C68.0874 125.749 68.0412 125.715 68.003 125.674C67.9647 125.632 67.935 125.583 67.9156 125.53C67.8963 125.476 67.8876 125.42 67.8901 125.363C67.8926 125.307 67.9062 125.251 67.9301 125.2L68.5085 123.958C68.5576 123.854 68.6458 123.774 68.7538 123.735C68.8619 123.697 68.9808 123.702 69.0846 123.751C69.1883 123.8 69.2683 123.889 69.307 123.997C69.3456 124.105 69.3398 124.224 69.2908 124.327L69.2718 124.318Z" fill="white"></path><path d="M83.0158 118.094C84.338 118.094 85.4099 117.022 85.4099 115.7C85.4099 114.378 84.338 113.306 83.0158 113.306C81.6935 113.306 80.6216 114.378 80.6216 115.7C80.6216 117.022 81.6935 118.094 83.0158 118.094Z" fill="white"></path><path d="M76.4546 103.622H64.2182C64.0925 103.622 63.9719 103.672 63.883 103.761C63.7941 103.85 63.7441 103.97 63.7441 104.096C63.7441 104.222 63.7941 104.342 63.883 104.431C63.9719 104.52 64.0925 104.57 64.2182 104.57H76.4546C76.5803 104.57 76.7009 104.52 76.7898 104.431C76.8787 104.342 76.9287 104.222 76.9287 104.096C76.9287 103.97 76.8787 103.85 76.7898 103.761C76.7009 103.672 76.5803 103.622 76.4546 103.622Z" fill="#333333"></path><path d="M102.103 103.622H87.6762C87.5505 103.622 87.4299 103.672 87.341 103.761C87.2521 103.85 87.2021 103.97 87.2021 104.096C87.2021 104.222 87.2521 104.342 87.341 104.431C87.4299 104.52 87.5505 104.57 87.6762 104.57H102.112C102.238 104.57 102.359 104.52 102.448 104.431C102.537 104.342 102.586 104.222 102.586 104.096C102.586 103.97 102.537 103.85 102.448 103.761C102.359 103.672 102.238 103.622 102.112 103.622H102.103Z" fill="#333333"></path><path d="M72.4434 121.853L68.3662 119.957C68.0443 119.806 67.6758 119.79 67.3416 119.911C67.0074 120.031 66.7348 120.28 66.5836 120.602L64.6873 124.683C64.538 125.005 64.522 125.373 64.6428 125.707C64.7635 126.041 65.0112 126.313 65.332 126.465L68.0628 127.745C68.3223 127.867 68.6057 127.93 68.8925 127.93C69.1206 127.931 69.3471 127.891 69.5609 127.811L70.7177 127.394C70.9602 127.306 71.183 127.172 71.3734 126.998C71.5638 126.823 71.7179 126.614 71.8271 126.38L73.0977 123.65C73.1748 123.489 73.219 123.315 73.2278 123.137C73.2365 122.959 73.2097 122.781 73.1487 122.614C73.0878 122.446 72.994 122.293 72.8729 122.162C72.7517 122.031 72.6057 121.926 72.4434 121.853ZM72.2301 123.232L70.9595 125.958C70.9035 126.079 70.8239 126.188 70.7254 126.279C70.627 126.369 70.5115 126.439 70.3859 126.484L69.2291 126.901C69.1046 126.948 68.972 126.969 68.8393 126.963C68.7066 126.957 68.5764 126.925 68.4563 126.868L65.7255 125.588C65.6789 125.566 65.6371 125.536 65.6025 125.497C65.5679 125.459 65.5413 125.415 65.5241 125.366C65.5069 125.318 65.4995 125.266 65.5023 125.215C65.5052 125.163 65.5182 125.113 65.5406 125.067L67.437 120.985C67.4579 120.939 67.488 120.897 67.5254 120.862C67.5629 120.827 67.607 120.799 67.6551 120.782C67.6991 120.775 67.7438 120.775 67.7878 120.782C67.8452 120.782 67.9018 120.795 67.9538 120.82L72.031 122.716C72.0786 122.736 72.1218 122.765 72.1578 122.802C72.1938 122.839 72.222 122.883 72.2406 122.932C72.2592 122.98 72.2678 123.031 72.266 123.083C72.2642 123.135 72.252 123.186 72.2301 123.232Z" fill="#333333"></path><path d="M83.0159 112.832C82.4466 112.827 81.8888 112.992 81.4135 113.306C80.9382 113.619 80.5669 114.067 80.3469 114.592C80.1269 115.116 80.0681 115.695 80.178 116.254C80.2879 116.812 80.5616 117.325 80.9641 117.728C81.3667 118.13 81.8799 118.404 82.4385 118.514C82.9971 118.624 83.5758 118.565 84.1008 118.345C84.6259 118.125 85.0736 117.754 85.387 117.278C85.7003 116.803 85.8652 116.245 85.8605 115.676C85.8531 114.924 85.551 114.205 85.0191 113.673C84.4873 113.142 83.768 112.84 83.0159 112.832ZM83.0159 117.62C82.6352 117.624 82.2616 117.516 81.9428 117.308C81.6239 117.1 81.3741 116.802 81.2252 116.451C81.0762 116.101 81.0348 115.714 81.1062 115.34C81.1776 114.966 81.3585 114.622 81.6261 114.351C81.8936 114.08 82.2357 113.895 82.6088 113.819C82.9819 113.743 83.3692 113.78 83.7214 113.924C84.0736 114.069 84.3749 114.315 84.587 114.631C84.799 114.947 84.9123 115.319 84.9123 115.7C84.9123 116.205 84.7133 116.69 84.3583 117.049C84.0033 117.409 83.521 117.614 83.0159 117.62Z" fill="#333333"></path><path d="M102.643 101.73H63.5496C62.6497 101.732 61.787 102.09 61.1507 102.726C60.5144 103.362 60.1563 104.225 60.1551 105.124C60.1527 105.14 60.1527 105.156 60.1551 105.172L62.5255 127.494C62.5189 127.784 62.5716 128.072 62.6804 128.342C62.7891 128.611 62.9517 128.855 63.158 129.059C63.3644 129.263 63.6103 129.423 63.8806 129.529C64.1509 129.634 64.44 129.684 64.7301 129.674H101.463C102.043 129.673 102.6 129.444 103.012 129.036C103.424 128.628 103.66 128.074 103.667 127.494L106.038 105.172C106.04 105.156 106.04 105.14 106.038 105.124C106.037 104.225 105.679 103.362 105.042 102.726C104.406 102.09 103.543 101.732 102.643 101.73ZM102.719 127.418V127.47C102.719 127.803 102.587 128.123 102.351 128.358C102.116 128.594 101.796 128.726 101.463 128.726H64.7301C64.5626 128.736 64.3949 128.71 64.2381 128.65C64.0813 128.591 63.9389 128.498 63.8203 128.38C63.7017 128.261 63.6094 128.119 63.5497 127.962C63.49 127.805 63.4641 127.638 63.4737 127.47V127.418L61.1033 105.101C61.1095 104.456 61.37 103.84 61.8281 103.387C62.2862 102.933 62.9049 102.678 63.5496 102.679H102.643C103.288 102.678 103.907 102.933 104.365 103.387C104.823 103.84 105.083 104.456 105.09 105.101L102.719 127.418Z" fill="#333333"></path><path d="M174.857 123.962H165.428C164.29 123.966 163.18 124.31 162.241 124.95C161.301 125.591 160.575 126.498 160.156 127.556H180.125C179.706 126.499 178.981 125.592 178.042 124.952C177.103 124.311 175.994 123.967 174.857 123.962Z" fill="white"></path><path d="M154.178 96.9951C153.765 97.3795 153.279 97.6771 152.749 97.8703C152.219 98.0636 151.656 98.1485 151.093 98.1201C150.529 98.0917 149.977 97.9505 149.47 97.7049C148.962 97.4593 148.509 97.1144 148.137 96.6904C147.765 96.2664 147.482 95.7721 147.304 95.2368C147.127 94.7015 147.059 94.136 147.104 93.5738C147.149 93.0116 147.307 92.4643 147.567 91.9641C147.828 91.464 148.186 91.0212 148.621 90.6621" fill="white"></path><path d="M181.599 100.683C181.431 100.527 181.256 100.38 181.073 100.242L163.204 84.4049C162.838 83.8272 162.302 83.3769 161.669 83.1155C161.037 82.8541 160.339 82.7946 159.672 82.9449L145.62 85.7274C145.48 85.7572 145.351 85.8223 145.243 85.9165C145.136 86.0107 145.055 86.1308 145.007 86.2654C144.96 86.4 144.947 86.5446 144.972 86.6853C144.996 86.826 145.056 86.9581 145.146 87.0689L156.42 101.057C156.51 101.17 156.628 101.257 156.762 101.31C156.896 101.364 157.041 101.382 157.184 101.363C157.327 101.344 157.463 101.288 157.578 101.202C157.693 101.115 157.784 101 157.842 100.868L163.005 88.984L178.252 102.788L168.888 123.962H173.331L182.367 103.153C182.563 102.718 182.593 102.227 182.452 101.772C182.31 101.317 182.007 100.929 181.599 100.683Z" fill="#D4EAD8"></path><path d="M182.386 100.707C182.134 100.452 181.858 100.221 181.561 100.02L181.395 99.8964L163.588 84.116C163.479 83.9475 163.355 83.7889 163.218 83.642C162.762 83.1543 162.187 82.7928 161.55 82.5926C160.913 82.3925 160.235 82.3604 159.582 82.4996L145.516 85.2632C145.295 85.3076 145.09 85.408 144.919 85.5545C144.749 85.7011 144.619 85.889 144.541 86.1003C144.464 86.3115 144.443 86.539 144.479 86.761C144.515 86.9829 144.607 87.1919 144.748 87.3679L147.663 90.9752C147.024 91.8091 146.684 92.8336 146.697 93.8842C146.71 94.9348 147.077 95.9503 147.737 96.7676C148.398 97.5849 149.314 98.1564 150.338 98.3903C151.362 98.6242 152.436 98.5068 153.385 98.0571L156.055 101.375C156.177 101.525 156.331 101.645 156.506 101.727C156.68 101.809 156.871 101.851 157.064 101.849C157.124 101.854 157.185 101.854 157.245 101.849C157.468 101.821 157.68 101.735 157.86 101.599C158.039 101.464 158.18 101.284 158.269 101.077L163.171 89.7949L177.678 102.93L168.67 123.313C168.644 123.366 168.631 123.425 168.632 123.484H165.427C164.198 123.486 162.997 123.858 161.982 124.552C160.967 125.246 160.185 126.23 159.738 127.376C159.71 127.448 159.701 127.526 159.71 127.603C159.719 127.679 159.746 127.753 159.79 127.816C159.834 127.88 159.891 127.932 159.959 127.969C160.027 128.005 160.102 128.024 160.179 128.025H180.124C180.201 128.024 180.277 128.005 180.344 127.969C180.412 127.932 180.47 127.88 180.513 127.816C180.557 127.753 180.585 127.679 180.594 127.603C180.603 127.526 180.593 127.448 180.565 127.376C180.117 126.227 179.331 125.24 178.312 124.545C177.292 123.851 176.086 123.481 174.852 123.484H174.018L182.803 103.347C182.998 102.914 183.062 102.434 182.988 101.965C182.914 101.496 182.705 101.059 182.386 100.707ZM148.583 96.289C148.043 95.667 147.722 94.8847 147.669 94.0626C147.617 93.2404 147.837 92.4238 148.294 91.7384L152.783 97.2987C152.064 97.5833 151.275 97.6391 150.523 97.4584C149.772 97.2777 149.094 96.8693 148.583 96.289ZM157.415 100.679C157.39 100.736 157.351 100.785 157.301 100.823C157.251 100.86 157.193 100.884 157.131 100.892C157.069 100.902 157.006 100.894 156.949 100.871C156.891 100.848 156.841 100.809 156.804 100.759L145.516 86.7706C145.477 86.7217 145.452 86.6638 145.442 86.6024C145.432 86.5409 145.438 86.478 145.46 86.4196C145.481 86.3612 145.517 86.3092 145.564 86.2686C145.611 86.228 145.668 86.2001 145.729 86.1875L159.786 83.405C160.277 83.2973 160.788 83.3189 161.268 83.4676C161.748 83.6164 162.182 83.8871 162.526 84.2535C163.304 85.1115 163.474 86.4245 162.953 87.9556C162.955 87.9729 162.955 87.9905 162.953 88.0078L157.415 100.679ZM163.578 88.861L163.782 88.387C163.782 88.3444 163.82 88.2969 163.835 88.2543C164.101 87.4941 164.211 86.6879 164.157 85.8842L180.067 99.9817C179.953 100.002 179.84 100.032 179.731 100.072C179.43 100.186 179.154 100.358 178.921 100.58C178.687 100.801 178.5 101.067 178.37 101.361L178.09 101.992L163.578 88.861ZM179.375 127.082H160.919C161.368 126.277 162.024 125.607 162.819 125.142C163.615 124.677 164.52 124.433 165.442 124.437H174.857C175.779 124.433 176.684 124.677 177.48 125.142C178.275 125.607 178.931 126.277 179.38 127.082H179.375ZM181.935 102.963L173.013 123.455C173.013 123.455 173.013 123.455 173.013 123.489H169.637L179.257 101.75C179.335 101.57 179.449 101.408 179.592 101.272C179.734 101.137 179.903 101.032 180.086 100.963C180.27 100.892 180.466 100.86 180.662 100.867C180.859 100.874 181.051 100.921 181.229 101.006C181.407 101.088 181.566 101.205 181.698 101.349C181.831 101.494 181.933 101.663 181.999 101.848C182.065 102.032 182.094 102.228 182.084 102.423C182.074 102.619 182.025 102.81 181.94 102.987L181.935 102.963Z" fill="#333333"></path><path d="M149.782 110.941V125.266C149.782 125.492 149.738 125.716 149.651 125.926C149.564 126.135 149.437 126.325 149.277 126.484C149.116 126.644 148.926 126.771 148.717 126.857C148.507 126.943 148.283 126.987 148.057 126.987H138.527C138.301 126.987 138.077 126.943 137.867 126.857C137.658 126.771 137.468 126.644 137.307 126.484C137.147 126.325 137.02 126.135 136.933 125.926C136.846 125.716 136.802 125.492 136.802 125.266V110.941H149.782Z" fill="white"></path><path d="M136.769 116.776H140.267C140.699 116.778 141.113 116.95 141.418 117.256C141.722 117.561 141.894 117.975 141.894 118.407C141.894 118.839 141.722 119.253 141.418 119.558C141.113 119.864 140.699 120.036 140.267 120.038H136.769V116.776Z" fill="#DFF5E3"></path><path d="M140.3 120.839H136.47V115.98H140.3C140.926 116.008 141.517 116.276 141.95 116.728C142.383 117.181 142.625 117.783 142.625 118.409C142.625 119.036 142.383 119.638 141.95 120.09C141.517 120.543 140.926 120.811 140.3 120.839ZM137.418 119.891H140.3C140.679 119.869 141.035 119.704 141.295 119.428C141.555 119.153 141.7 118.788 141.7 118.409C141.7 118.03 141.555 117.666 141.295 117.39C141.035 117.115 140.679 116.949 140.3 116.928H137.418V119.891Z" fill="#9E9E9E"></path><path d="M139.68 119.398C139.594 119.398 139.509 119.382 139.43 119.35C139.35 119.317 139.278 119.27 139.217 119.209C139.156 119.149 139.108 119.077 139.075 118.998C139.042 118.919 139.025 118.834 139.025 118.748V118.094C139.039 117.931 139.114 117.779 139.235 117.668C139.355 117.557 139.513 117.496 139.677 117.496C139.841 117.496 139.999 117.557 140.12 117.668C140.24 117.779 140.315 117.931 140.329 118.094V118.748C140.329 118.834 140.312 118.918 140.28 118.997C140.247 119.076 140.199 119.147 140.139 119.207C140.079 119.268 140.007 119.316 139.928 119.348C139.849 119.381 139.765 119.398 139.68 119.398Z" fill="#9E9E9E"></path><path d="M139.518 124.422H137.082V123.474H139.518C140.625 123.483 141.691 123.059 142.489 122.292C143.286 121.524 143.752 120.475 143.785 119.369V118.748C143.676 117.704 143.183 116.738 142.401 116.038C141.62 115.337 140.606 114.951 139.556 114.956H137.119V114.008H139.556C140.844 114.004 142.088 114.479 143.045 115.341C144.002 116.203 144.604 117.391 144.733 118.672V119.36C144.701 120.718 144.137 122.01 143.161 122.957C142.186 123.904 140.878 124.43 139.518 124.422Z" fill="#9E9E9E"></path><path d="M136.564 121.299H139.684C139.684 121.645 139.547 121.976 139.302 122.221C139.058 122.465 138.726 122.602 138.38 122.602H136.569L136.564 121.299Z" fill="#9E9E9E"></path><path d="M150.498 114.586H150.394H150.257V110.951C150.257 110.825 150.207 110.704 150.118 110.615C150.029 110.527 149.908 110.477 149.782 110.477H136.802C136.676 110.477 136.555 110.527 136.467 110.615C136.378 110.704 136.328 110.825 136.328 110.951V125.266C136.329 125.848 136.56 126.406 136.972 126.818C137.383 127.23 137.94 127.463 138.523 127.466H148.033C148.324 127.468 148.612 127.413 148.881 127.304C149.151 127.194 149.396 127.033 149.602 126.828C149.809 126.624 149.973 126.381 150.086 126.113C150.198 125.845 150.256 125.557 150.257 125.266V121.403H150.622C150.697 121.403 150.772 121.385 150.84 121.351C151.657 121.204 152.392 120.765 152.91 120.116C153.427 119.466 153.691 118.651 153.652 117.822C153.613 116.993 153.275 116.206 152.699 115.608C152.123 115.01 151.349 114.642 150.522 114.572L150.498 114.586ZM149.308 125.266C149.308 125.598 149.176 125.916 148.942 126.151C148.707 126.386 148.389 126.518 148.057 126.518H138.523C138.192 126.516 137.874 126.384 137.641 126.149C137.407 125.915 137.276 125.597 137.276 125.266V111.415H149.308V125.266ZM150.257 120.455V115.525C150.894 115.553 151.495 115.825 151.936 116.286C152.377 116.747 152.623 117.359 152.623 117.997C152.623 118.634 152.377 119.247 151.936 119.708C151.495 120.168 150.894 120.441 150.257 120.469V120.455Z" fill="#333333"></path><path d="M145.44 118.549H144.292V119.497H145.44V118.549Z" fill="#9E9E9E"></path><path d="M145.971 119.753C146.364 119.753 146.682 119.435 146.682 119.042C146.682 118.649 146.364 118.331 145.971 118.331C145.578 118.331 145.26 118.649 145.26 119.042C145.26 119.435 145.578 119.753 145.971 119.753Z" fill="#9E9E9E"></path><path d="M141.609 99.4741C141.609 100.967 141.059 100.967 141.059 102.456C141.059 103.944 141.609 103.954 141.609 105.447C141.609 106.94 141.059 106.94 141.059 108.433" stroke="#9E9E9E" stroke-width="2" stroke-linecap="round" stroke-linejoin="round"></path><path d="M145.374 108.907C145.248 108.907 145.127 108.857 145.038 108.769C144.949 108.68 144.9 108.559 144.9 108.433C144.895 108.041 145.02 107.658 145.255 107.343C145.388 107.184 145.458 106.982 145.454 106.774C145.459 106.568 145.388 106.368 145.255 106.21C145.024 105.893 144.9 105.51 144.9 105.118C144.9 104.725 145.024 104.342 145.255 104.025C145.388 103.867 145.459 103.667 145.454 103.461C145.454 103.335 145.504 103.215 145.593 103.126C145.682 103.037 145.803 102.987 145.928 102.987C146.054 102.987 146.175 103.037 146.264 103.126C146.352 103.215 146.402 103.335 146.402 103.461C146.407 103.853 146.282 104.237 146.047 104.551C145.914 104.709 145.843 104.909 145.848 105.115C145.844 105.323 145.914 105.525 146.047 105.684C146.278 106.001 146.403 106.382 146.403 106.774C146.403 107.166 146.278 107.548 146.047 107.865C145.914 108.024 145.844 108.226 145.848 108.433C145.848 108.496 145.835 108.557 145.812 108.615C145.788 108.672 145.753 108.725 145.709 108.769C145.665 108.813 145.613 108.847 145.555 108.871C145.498 108.895 145.436 108.907 145.374 108.907Z" fill="#9E9E9E"></path><path d="M16.4437 98.1375C16.3062 95.7674 16.0881 93.3973 15.7468 90.9987C15.4278 88.586 14.9318 86.1999 14.2629 83.8599C14.2406 83.7901 14.2012 83.727 14.1482 83.6765C14.0951 83.6259 14.0302 83.5896 13.9594 83.5707C13.8488 83.5392 13.7303 83.5518 13.6287 83.6057C13.5271 83.6596 13.4502 83.7506 13.4142 83.8599C12.7453 86.1999 12.2493 88.586 11.9303 90.9987C11.589 93.3688 11.3661 95.739 11.2334 98.1375L11.8639 110.097H16.2872L16.4437 98.1375Z" fill="#2BB24C"></path><path d="M18.4966 110.097H18.5725C18.5725 110.097 8.96733 109.822 9.04319 110.097H8.82511C8.40892 110.097 8.00977 110.263 7.71548 110.557C7.42119 110.851 7.25586 111.25 7.25586 111.666V121.829C7.25586 122.634 7.57538 123.407 8.14427 123.976C8.71315 124.546 9.4849 124.867 10.2901 124.868H16.9605C17.3594 124.868 17.7543 124.789 18.1228 124.637C18.4912 124.484 18.8259 124.26 19.1077 123.978C19.3895 123.695 19.6129 123.36 19.7651 122.992C19.9173 122.623 19.9954 122.228 19.9947 121.829V111.662C19.9963 111.258 19.841 110.869 19.5615 110.577C19.2821 110.285 18.9003 110.113 18.4966 110.097Z" fill="white"></path><path d="M18.4967 110.097H18.5726C18.9234 108.234 19.2126 106.177 19.4354 104.3C19.6867 102.129 19.8668 99.9435 19.9474 97.7487C20.0508 95.536 20.0033 93.3187 19.8052 91.1124C19.7983 91.0496 19.7743 90.9899 19.7359 90.9397C19.6974 90.8896 19.646 90.8509 19.5871 90.828C19.4999 90.7931 19.4028 90.7922 19.3149 90.8256C19.2271 90.8589 19.1551 90.9241 19.113 91.0081C18.1984 93.0439 17.4223 95.1391 16.79 97.2795C16.1405 99.3889 15.5953 101.517 15.1164 103.65C14.6376 105.783 14.2394 107.779 13.9549 109.865C13.9549 109.941 13.9549 110.017 13.9217 110.097H13.4476C13.4476 109.599 13.4097 108.978 13.3575 108.485C13.0731 106.319 12.6322 104.181 12.1628 102.043C11.8736 100.74 11.556 99.4458 11.2146 98.1517C10.9934 97.3237 10.7564 96.4973 10.5035 95.6725C9.86955 93.5305 9.09185 91.4337 8.1757 89.3964C8.147 89.3387 8.10409 89.2893 8.051 89.2528C7.99792 89.2163 7.93641 89.194 7.87228 89.1878C7.77683 89.1771 7.68101 89.2044 7.60557 89.2639C7.53014 89.3233 7.48118 89.4101 7.4693 89.5054C7.27119 91.7117 7.22367 93.929 7.32707 96.1418C7.41241 98.3365 7.58783 100.517 7.8391 102.688C8.09036 104.859 8.3843 107.025 8.82995 109.163C8.89158 109.429 8.99114 109.822 9.067 110.111H8.84892C7.95762 110.097 19.3311 110.135 18.4967 110.097Z" fill="#D4EAD8"></path><path d="M8.72559 124.863H17.6528C18.2765 124.856 18.8722 124.603 19.3106 124.159C19.749 123.715 19.9948 123.117 19.9948 122.493V115.947C19.7198 118.317 19.0087 120.91 17.3493 122.583C14.4526 125.479 8.72559 124.863 8.72559 124.863Z" fill="#F2F2F2"></path><path d="M19.127 109.741C19.4588 107.935 19.7006 106.091 19.9045 104.357C20.1747 102.048 20.3407 99.8912 20.4213 97.7723C20.5256 95.5327 20.4781 93.2885 20.279 91.0553C20.2614 90.9077 20.2047 90.7675 20.1146 90.6491C20.0246 90.5308 19.9046 90.4386 19.767 90.3822C19.565 90.2986 19.3387 90.2952 19.1343 90.3727C18.9299 90.4502 18.7628 90.6028 18.6671 90.7994C17.9372 92.426 17.3039 94.0943 16.7707 95.7956C16.6332 94.1602 16.4626 92.5817 16.2397 91.0553C15.9171 88.6187 15.4164 86.2089 14.7416 83.8454C14.6814 83.6596 14.5638 83.4977 14.4058 83.3828C14.2478 83.2679 14.0575 83.2061 13.8622 83.2061C13.6668 83.2061 13.4765 83.2679 13.3185 83.3828C13.1605 83.4977 13.043 83.6596 12.9827 83.8454C12.308 86.2089 11.8072 88.6187 11.4846 91.0553C11.2713 92.539 11.1053 94.0464 10.9726 95.6107C10.9726 95.587 10.9726 95.5681 10.9726 95.5444C10.3251 93.3827 9.53317 91.2669 8.60211 89.2114C8.52287 89.0462 8.39228 88.911 8.22985 88.8262C8.06742 88.7413 7.88188 88.7113 7.70099 88.7407C7.52009 88.77 7.35356 88.8571 7.22629 88.989C7.09902 89.1208 7.01785 89.2903 6.99493 89.4721C6.79445 91.7036 6.74535 93.9461 6.84796 96.1843C6.92856 98.3032 7.09923 100.451 7.36472 102.769C7.60177 104.736 7.89096 107.035 8.36032 109.296C8.38876 109.424 8.42669 109.547 8.45988 109.675C7.99483 109.757 7.57343 109.999 7.2699 110.361C6.96637 110.723 6.80017 111.18 6.80055 111.652V121.853C6.8018 122.776 7.16868 123.66 7.82087 124.313C8.47306 124.966 9.35743 125.334 10.2804 125.337H16.9888C17.9122 125.336 18.7973 124.968 19.4497 124.315C20.1022 123.661 20.4687 122.776 20.4687 121.853V111.633C20.4685 111.217 20.3393 110.812 20.099 110.474C19.8586 110.135 19.519 109.879 19.127 109.741ZM19.3735 91.5483C19.5329 93.5985 19.5662 95.6565 19.4731 97.7107C19.3972 99.8106 19.2265 101.939 18.9658 104.224C18.7572 105.954 18.5201 107.798 18.1883 109.594H16.7944L17.809 103.608C17.8297 103.482 17.7997 103.353 17.7255 103.249C17.6512 103.146 17.5389 103.076 17.4131 103.055C17.2874 103.035 17.1586 103.065 17.055 103.139C16.9514 103.213 16.8816 103.325 16.8608 103.451L15.8225 109.613H14.2533C14.661 107.149 16.2303 100.232 17.2164 97.4073C17.8154 95.4122 18.5358 93.4556 19.3735 91.5483ZM12.3996 91.1691C12.7075 88.8155 13.1828 86.4869 13.8219 84.2009C14.4635 86.4863 14.9388 88.8151 15.2442 91.1691C15.5665 93.4302 15.7941 95.7435 15.9363 98.2321C15.3722 100.104 14.7084 102.802 14.1727 105.181V93.5061C14.1727 93.3803 14.1228 93.2598 14.0338 93.1709C13.9449 93.082 13.8243 93.032 13.6986 93.032C13.5729 93.032 13.4523 93.082 13.3634 93.1709C13.2745 93.2598 13.2245 93.3803 13.2245 93.5061V105.025C13.0159 103.939 12.7883 102.897 12.5797 101.934C12.2906 100.654 11.9919 99.4314 11.6742 98.2463C11.8496 95.7482 12.0772 93.4302 12.3996 91.1691ZM8.28446 102.641C8.02371 100.351 7.85778 98.2226 7.77718 96.1322C7.68483 94.0668 7.71966 91.9977 7.88148 89.9366C8.71352 91.8478 9.42912 93.8075 10.0244 95.8051C10.6407 97.815 11.1812 99.8864 11.6885 102.138C12.2052 104.508 12.6082 106.518 12.8737 108.533C12.9116 108.898 12.9353 109.258 12.9495 109.618H11.6885L10.3989 101.844C10.3775 101.718 10.3071 101.606 10.2031 101.533C10.099 101.459 9.96997 101.429 9.84423 101.451C9.71849 101.472 9.6064 101.543 9.5326 101.647C9.45881 101.751 9.42936 101.88 9.45073 102.005L10.726 109.623H9.40807C9.36066 109.438 9.30851 109.253 9.27058 109.078C8.80597 106.85 8.50255 104.584 8.28446 102.641ZM19.5205 121.853C19.5205 122.525 19.2539 123.169 18.7793 123.644C18.3046 124.12 17.6607 124.388 16.9888 124.389H10.2614C9.58956 124.388 8.94563 124.12 8.47099 123.644C7.99635 123.169 7.72977 122.525 7.72978 121.853V113.733H15.7514C15.8772 113.733 15.9978 113.683 16.0867 113.594C16.1756 113.505 16.2255 113.384 16.2255 113.259C16.2255 113.133 16.1756 113.012 16.0867 112.924C15.9978 112.835 15.8772 112.785 15.7514 112.785H7.72978V111.633C7.73103 111.351 7.84396 111.081 8.04388 110.882C8.24379 110.683 8.5144 110.571 8.79649 110.571H18.4585C18.5984 110.571 18.7368 110.599 18.866 110.652C18.9952 110.706 19.1124 110.785 19.2111 110.884C19.3098 110.983 19.3879 111.1 19.441 111.23C19.4941 111.359 19.5211 111.498 19.5205 111.638V121.853Z" fill="#333333"></path></g><defs><clipPath id="clip0"><rect width="183" height="146" fill="white" transform="translate(0.5 0.388672)"></rect></clipPath></defs></svg> 